<svg fill="none" height="411" viewBox="0 0 538 411" width="538" xmlns="http://www.w3.org/2000/svg"><path d="m209.279.0146316c-19.821.5400004-36.221 16.4159684-37.361 36.2119684-.671 11.64 3.84 22.232 11.432 29.705 1.122 1.104 1.643 2.678 1.381 4.23l-2.851 16.871 17.542-10.221c.999-.582 2.176-.796 3.31-.567 4.288.865 8.831 1.024 13.514.315 17.329-2.625 30.849-16.971 32.447-34.425 2.128-23.262-16.452-42.744968-39.414-42.1199684z" fill="#d3ddf7"/><path d="m208.598 51.8316-.108-9.205c1.343-.327 2.568-.753 3.676-1.28 1.107-.526 2.079-1.134 2.914-1.825.835-.689 1.534-1.461 2.098-2.315.563-.853.988-1.77 1.28-2.75.29-.98.435-2.015.435-3.104 0-1.561-.382-3.032-1.145-4.412-.762-1.379-1.852-2.496-3.268-3.35-1.416-.853-3.105-1.28-5.065-1.28-2.106 0-4.058.581-5.855 1.743-1.798 1.163-3.169 3.141-4.112 5.937l-.98-.654c.835-2.65 2.233-4.684 4.194-6.1 1.961-1.417 4.193-2.125 6.699-2.125 2.143 0 4.022.455 5.638 1.362 1.615.908 2.877 2.134 3.785 3.677.907 1.543 1.362 3.277 1.362 5.202 0 1.453-.245 2.814-.735 4.085s-1.181 2.433-2.07 3.486c-.89 1.054-1.97 1.97-3.241 2.75-1.272.782-2.705 1.371-4.303 1.771l-.108 8.388zm-.653 6.863c0-.472.127-.862.381-1.171.254-.308.6-.463 1.035-.463.508 0 .871.146 1.09.436.218.291.326.69.326 1.198 0 .436-.118.817-.354 1.144-.237.327-.591.49-1.063.49-.473 0-.826-.146-1.063-.436s-.352-.689-.352-1.198z" fill="#000"/><path d="m97.863 376.715 1.708 12.873s32.021 13.64 29.051 13.837c-2.97.198-48.986-2.772-48.986-2.772l2.708-23.37z" fill="#000"/><path d="m88.9429 166.56s-2.552 24.56-4.465 25.836c-1.914 1.276-4.465 1.914-4.465 1.914l4.146-28.068z" stroke="#424242" stroke-miterlimit="10"/><path d="m38.3781 149.678s-12.979 29.307-9.211 45.635l71.9459-10.974-1.5009-30.446z" fill="#000"/><path d="m101.113 184.34s.407 70.315.907 94.813 4.784 100.154 4.784 100.154-13.4349 7.407-27.4279 1.421c-1.119-.479-13.173-197.044-13.173-197.044z" fill="#000"/><path d="m30.359 186.61-30.359 193.339s13.258 12.421 30.005 1.116l30.87-157.923 14.991-10.065 2.233-28.807z" fill="#000"/><path d="m22.3871 375.163 2.764 11.106s20.201 24.296 17.224 24.296-36.14903-15.04-36.14903-15.04l4.25303-23.138z" fill="#000"/><path d="m41.448 161.541s-19.132 80.438-33.35401 222.455" stroke="#424242" stroke-miterlimit="10"/><path d="m54.5671 170.193s-6.699 16.747-18.143 17.026" stroke="#424242" stroke-miterlimit="10"/><path d="m82.863 381.887-9.788-166.43 9.562-10.028" stroke="#424242" stroke-miterlimit="10"/><path d="m82.7351 65.4756c4.978-1.019 8.611-1.75 8.611-1.75l31.0479 16.957c.053.029.106.058.159.087 10.174 5.614 14.671 15.139 14.403 28.4884l1.508 19.337-16.825-13.653-14.223 27.427-9.0329 32.379c-48.204 17.529-66.928-13.943-66.928-13.943l15.971-34.573 6.451-31.9304c3.065-16.385 12.53-25.483 28.858-28.826z" fill="#a2a360"/><path d="m329.239 161.055c6.268 0 12.338-2.2 17.151-6.216l13.355-11.144c4.806-4.01 10.514-6.159 16.363-6.159h66.278c6.014 0 10.89 4.876 10.89 10.89v12.628 227.316c0 10.378-8.413 18.792-18.792 18.792h-330.392c-8.0719 0-14.6159-6.544-14.6159-14.616v-216.875c0-8.072 6.544-14.616 14.6159-14.616z" fill="#333969"/><path d="m89.477 393.771s22.485-42.177 24.734-47.021l61.451-125.192c1.545-3.327 4.879-5.455 8.547-5.455h228.358c8.302 0 20.309-4.352 26.683-9.671l9.215-7.689c4.806-4.01 10.515-6.159 16.363-6.159h63.074c6.714 0 11.274 6.82 8.709 13.025l-76.271 184.469c-4.275 10.34-14.361 17.084-25.55 17.084h-341.189c-2.224 0-4.278-1.905-4.277-4.129z" fill="#7584f1"/><path d="m182.361 228.007-90.172 175.287" stroke="#000" stroke-linejoin="round" stroke-miterlimit="10"/><path d="m219.517 258.214h77.675c2.118 0 4.089-1.066 5.226-2.826 2.624-4.061-.338-9.376-5.226-9.376h-77.675c-2.118 0-4.089 1.066-5.226 2.825-2.625 4.062.338 9.377 5.226 9.377z" stroke="#000" stroke-linejoin="round" stroke-miterlimit="10"/><path d="m364.816 318.46-60.477 36.03" stroke="#000" stroke-linecap="round" stroke-linejoin="round" stroke-miterlimit="10"/><path d="m315.37 316.723 38.001 37.984" stroke="#000" stroke-linecap="round" stroke-linejoin="round" stroke-miterlimit="10"/><path d="m344.474 369.315c24.205-6.695 39.727-26.948 34.668-45.236-5.058-18.287-28.781-27.684-52.987-20.989-24.205 6.696-39.727 26.949-34.668 45.236 5.058 18.288 28.781 27.685 52.987 20.989z" stroke="#000" stroke-linecap="round" stroke-linejoin="round" stroke-miterlimit="10"/><path d="m104.908 147.223 11.215 12.594s-10.521 12.414-21.2071 5.061l-1.714-2.459z" fill="#a2a360"/><path d="m78.8479 72.0776s15.366 4.026 3.276 48.4474" stroke="#000" stroke-linecap="round" stroke-miterlimit="10"/><path d="m105.849 148.544c-8.2959-9.321-18.4359-21.033-24.4259-29.108" stroke="#000" stroke-linecap="round" stroke-miterlimit="10"/><path d="m94.9161 164.878c-7.962-8.163-18.721-19.782-23.417-24.088-7.318-6.711-14.913-17.509-12.437-31.381l-.297-11.1224" stroke="#000" stroke-linecap="round" stroke-miterlimit="10"/><path d="m142.71 158.917c-9.805-5.298-14.322-11.857-18.103-16.719-9.02-11.597-12.216-13.033-9.573-26.531l.145-14.126 19.569 21.178c7.473 9.913 24.701 27.684 31.066 34.686 0 0-7.472 9.958-23.104 1.512z" fill="#a2a360"/><path d="m102.801 155.34c.902-.247 1.837-.323 2.767-.225 3.356.355 12.349 1.299 13.364 1.312 1.25.016 2.266-1.85 4.948 4.915 2.682 6.764 2.201 7.394 2.185 8.278-.015.884-1.961 13.873-4.051 11.922s-1.809-3.087-1.809-3.087-1.127 5.275-1.72 5.072c-.593-.204-2.79-.21-2.438-3.935 0 0-1.198 3.621-2.433 2.72-1.235-.9-.958-4.814-.958-4.814s-1.322 2.938-2.832.977c-1.509-1.962-.385-6.505-.385-6.505l-1.265-3.376-2.737-1.183s-9.213 2.41-10.798-3.985c-1.217-4.914 5.149-7.262 8.162-8.086z" fill="#db9c7f"/><path d="m121.332 163.632 1.73 7.27-2.857 7.553" stroke="#000" stroke-linecap="round" stroke-miterlimit="10"/><path d="m116.891 163.363 2.241 7.451-3.086 8.777" stroke="#000" stroke-linecap="round" stroke-miterlimit="10"/><path d="m112.995 164.195 1.305 7.164-1.493 5.366" stroke="#000" stroke-linecap="round" stroke-miterlimit="10"/><path d="m105.471 26.0716c-3.269 3.06-3.317 6.781-3.317 6.781s-1.124-1.388-2.5141-1.834" stroke="#000" stroke-linecap="round" stroke-miterlimit="10"/><path d="m152.168 153.259c3.109-.751 6.387-.243 9.233 1.215 3.745 1.919 9.595 4.891 10.358 5.119 1.133.338 1.872-.275 2.022 6.606.059 2.719.051 4.596-.191 5.397-.243.8-5.739 9.012-7.544 7.856-.049-.032-.083-.058-.128-.088-.458.615-1.071 1.369-1.673 1.883-.451.385-2.961.333-1.677-2.964 0 0-1.74 3.811-3.093 3.303-1.763-.662-1.477-2.357-.834-3.791-.819 1.106-1.833 2.007-2.554 1.05-1.415-1.878 1.79-8.557 1.79-8.557l.374-4.045-2.446-2.189s-8.743.214-8.53-6.013c.097-2.857 2.413-4.183 4.893-4.782z" fill="#db9c7f"/><path d="m171.355 163.679-.111 7.378-5.382 7.831" stroke="#000" stroke-linecap="round" stroke-miterlimit="10"/><path d="m167.534 163.737-.421 7.605-4.545 6.94" stroke="#000" stroke-linecap="round" stroke-miterlimit="10"/><path d="m163.654 163.936-.545 6.404-3.879 6.434" stroke="#000" stroke-linecap="round" stroke-miterlimit="10"/><path d="m152.591 162.229s.878 6.601-1.253 8.05c-2.13 1.449-5.566-12.202-3.203-12.376 3.463-.256 4.456 4.326 4.456 4.326z" fill="#db9c7f"/><path d="m155.495 161.275s-2.119.34-2.724 2.828" stroke="#000" stroke-linecap="round" stroke-miterlimit="10"/><path d="m114.374 129.33 10.3-13.424c9.416-12.457 3.141-25.6264 3.141-25.6264" stroke="#000" stroke-linecap="round" stroke-miterlimit="10"/><path d="m138.465 128.595s-6.068-8.413-7.447-4.689" stroke="#000" stroke-linecap="round" stroke-miterlimit="10"/><path d="m140.809 58.5806-1.747-.368" stroke="#fff" stroke-miterlimit="10"/><path d="m104.287 56.9536-12.9411 6.772s-.34 15.358 14.1931 27.031l6.526-6.341 6.577 6.579s2.502-1.965 3.245-10.882l-1.173-10.826z" fill="#a2a360"/><path d="m120.715 69.2866-16.428-12.333-12.9411 6.772" stroke="#000" stroke-linecap="round" stroke-linejoin="round" stroke-miterlimit="10"/><path d="m100.53 59.2826s4.001 23.394 9.925 25.052c5.923 1.657 9.618-10.041 9.618-10.041l-11.47-31.934z" fill="#db9c7f"/><path d="m122.273 77.1066.071 2.908c.054.03-.118.898-3.002 1.229-12.671-.378-13.674-14.636-14.705-25.979 0 0 18.806 19.578 17.636 21.842z" fill="#000"/><path d="m140.005 45.3026s3.255 29.652-14.139 34.47-21.561-23.547-20.961-33.357 5.498-14.655 17.689-15.094c18.035-.65 17.411 13.981 17.411 13.981z" fill="#db9c7f"/><path d="m113.965 37.2656s-.326 6.232-4.462 7.477l-2.974 9.165s-2.492-4.073-5.23-5.516c0 0-3.0242-12.103.783-16.912 3.807-4.809 9.099-7.247 21.902-6.182 9.745.81 15.446 7.723 17.308 11.24.604 1.14 2.069 4.344-1.356 7.461 0 0 .046-2.358-1.954-5.117 0 0-4.666 9.539-24.017-1.616z" fill="#000"/><path d="m97.2889 55.4786c1.073 3.913 4.1511 6.499 6.8751 5.777s4.064-4.479 2.991-8.392c-1.072-3.913-4.151-6.499-6.875-5.777-2.7251.723-4.0641 4.48-2.9911 8.392z" fill="#db9c7f"/><path d="m122.368 56.7856c-.05 1.008.429 1.851 1.07 1.884s1.2-.758 1.249-1.766c.05-1.008-.429-1.851-1.07-1.884-.64-.032-1.2.759-1.249 1.766z" fill="#000"/><path d="m135.784 57.6146c-.099.944.288 1.76.864 1.821s1.124-.654 1.223-1.599c.099-.944-.288-1.76-.864-1.821-.577-.061-1.124.655-1.223 1.599z" fill="#000"/><path d="m118.538 48.8036s4.607.987 4.914-3.382" stroke="#000" stroke-linecap="round" stroke-miterlimit="10"/><path d="m134.149 48.4456s1.174 4.061 4.637 1.71" stroke="#000" stroke-linecap="round" stroke-miterlimit="10"/><path d="m121.563 73.0306s-1.519-6.189-6.233-2.641z" fill="#000"/><g stroke-miterlimit="10"><path d="m100.023 52.0726s3.064-2.636 4.738 2.184c0 0-1.79 1.9-.66 3.391 0 0-1.765.4-2.635-1.156" stroke="#000" stroke-linecap="round" stroke-linejoin="round"/><path d="m101.35 53.9166s.171-1.071 1.36-2.294" stroke="#000" stroke-linecap="round" stroke-linejoin="round"/><path d="m133.124 57.4616c0 2.864 1.76 5.186 3.932 5.186s3.932-2.322 3.932-5.186-1.76-5.186-3.932-5.186-3.932 2.322-3.932 5.186z" stroke="#fff"/><path d="m118.408 56.7526c0 3.035 2.241 5.495 5.005 5.495s5.005-2.46 5.005-5.495-2.241-5.495-5.005-5.495c-2.764-.001-5.005 2.46-5.005 5.495z" stroke="#fff"/><path d="m133.301 58.9626s-1.217-5.165-5.165-.366" stroke="#fff"/><path d="m118.513 54.6726-11.631-2.62" stroke="#fff"/><path d="m133.788 61.2476c.576.731.696 1.602.405 2.544-.287.93-1.235 1.496-2.195 1.476-.445-.009-.872-.129-1.293-.261-.184-.057-.548-.254-.746-.167-.959.424-2.076-.413-1.756-1.067" stroke="#000" stroke-linecap="round"/></g></svg>