<svg fill="none" height="357" viewBox="0 0 659 357" width="659" xmlns="http://www.w3.org/2000/svg"><path d="m400.164 245.453c.331 34.433-7.178 60.755-22.521 78.967-15.347 18.215-36.356 27.449-63.026 27.705-26.795.257-48.097-8.57-63.91-26.486-15.813-17.913-23.885-44.085-24.215-78.518l-.582-60.558c-.329-34.309 7.176-60.633 22.521-78.967 15.343-18.335 36.411-27.631 63.206-27.888 26.671-.256 47.916 8.633 63.73 26.669 15.815 18.036 23.886 44.21 24.216 78.519zm-44.838-66.92c-.208-21.68-4-37.697-11.374-48.044s-18.034-15.454-31.975-15.32c-13.943.134-24.472 5.444-31.584 15.93-7.114 10.486-10.567 26.572-10.358 48.253l.707 73.584c.209 21.806 4.03 37.91 11.468 48.316 7.434 10.409 18.123 15.544 32.066 15.41 13.94-.134 24.438-5.443 31.492-15.929 7.053-10.486 10.475-26.691 10.264-48.616z" fill="#adc964"/><path d="m400.164 245.453c.331 34.433-7.178 60.755-22.521 78.967-15.347 18.215-36.356 27.449-63.026 27.705-26.795.257-48.097-8.57-63.91-26.486-15.813-17.913-23.885-44.085-24.215-78.518l-.582-60.558c-.329-34.309 7.176-60.633 22.521-78.967 15.343-18.335 36.411-27.631 63.206-27.888 26.671-.256 47.916 8.633 63.73 26.669 15.815 18.036 23.886 44.21 24.216 78.519zm-44.838-66.92c-.208-21.68-4-37.697-11.374-48.044s-18.034-15.454-31.975-15.32c-13.943.134-24.472 5.444-31.584 15.93-7.114 10.486-10.567 26.572-10.358 48.253l.707 73.584c.209 21.806 4.03 37.91 11.468 48.316 7.434 10.409 18.123 15.544 32.066 15.41 13.94-.134 24.438-5.443 31.492-15.929 7.053-10.486 10.475-26.691 10.264-48.616z" fill="#000" opacity=".4"/><path d="m425.623 245.208c.331 34.433-7.178 60.755-22.521 78.967-15.347 18.215-36.356 27.449-63.026 27.705-26.796.257-48.097-8.57-63.91-26.486-15.813-17.913-23.885-44.085-24.215-78.518l-.582-60.558c-.329-34.309 7.176-60.633 22.521-78.967 15.343-18.3351 36.411-27.6311 63.206-27.8881 26.671-.256 47.916 8.633 63.73 26.6691 15.814 18.036 23.886 44.21 24.215 78.519zm-44.838-66.92c-.208-21.681-4-37.697-11.374-48.044s-18.034-15.454-31.975-15.32c-13.943.134-24.472 5.444-31.583 15.931-7.115 10.486-10.567 26.572-10.358 48.253l.707 73.584c.209 21.806 4.03 37.91 11.468 48.316 7.434 10.409 18.123 15.544 32.066 15.41 13.94-.134 24.438-5.443 31.493-15.929 7.052-10.486 10.474-26.691 10.264-48.616z" fill="#adc964"/><path d="m427.617 223.296c.01.055-.712.149-1.944.559-1.227.421-2.938 1.229-4.828 2.585-1.908 1.331-3.975 3.19-6.411 5.114-2.449 1.912-5.355 3.746-8.593 5.287-6.484 3.12-12.991 4.334-17.664 4.564-1.17.097-2.234.062-3.164.083-.931-.038-1.733-.054-2.386-.104-.603-.061-1.099-.112-1.501-.153-.342-.041-.521-.071-.519-.089s.184-.023.528-.016c.402.015.899.033 1.502.055.677.004 1.47.009 2.376.015.924-.049 1.98-.04 3.139-.159 4.632-.323 11.052-1.581 17.465-4.667 3.204-1.525 6.084-3.325 8.524-5.197 2.43-1.886 4.538-3.729 6.495-5.038 1.941-1.334 3.713-2.109 4.976-2.475.637-.171 1.135-.285 1.48-.32.343-.046.523-.062.525-.044z" fill="#fff"/><path d="m421.943 151.688c-.01.015-.156-.056-.426-.205-.318-.184-.701-.405-1.161-.67-.495-.305-1.108-.663-1.856-1.014-.742-.359-1.559-.825-2.531-1.192-.481-.2-.982-.408-1.503-.624-.524-.213-1.092-.373-1.667-.573-1.144-.423-2.415-.713-3.74-1.056-2.675-.579-5.668-.987-8.83-1.035-3.163-.007-6.164.347-8.849.879-1.331.32-2.607.587-3.759.99-.578.19-1.15.34-1.677.544-.524.207-1.029.406-1.513.598-.979.35-1.803.801-2.552 1.147-.754.337-1.373.685-1.873.981-.464.257-.851.471-1.172.649-.271.144-.419.212-.429.197s.118-.113.372-.286c.309-.202.68-.444 1.126-.736.487-.325 1.096-.7 1.844-1.065.741-.374 1.563-.852 2.542-1.228.485-.203.991-.415 1.516-.635.529-.216 1.103-.377 1.685-.578 1.159-.425 2.445-.712 3.79-1.048 2.712-.565 5.751-.938 8.954-.931 3.202.049 6.233.476 8.934 1.089 1.338.36 2.619.669 3.771 1.115.578.211 1.149.383 1.675.608.521.229 1.023.45 1.505.662.972.392 1.785.885 2.52 1.272.741.378 1.343.765 1.825 1.098.441.299.808.549 1.113.756.25.176.376.276.366.291z" fill="#fff"/><path d="m160.057 257.997 33.432 1.46-1.546 35.43-33.432-1.46-2.57 58.869-43.97-1.92 2.57-58.868-113.55809-4.957.086-26.98 120.99709-173.801 45.423 1.982zm-115.0101-5.02 71.0411 3.102 4.688-107.38-1.075-.411-3.974 7.654z" fill="#57b9d1"/><path d="m160.057 257.997 33.432 1.46-1.546 35.43-33.432-1.46-2.57 58.869-43.97-1.92 2.57-58.868-113.55809-4.957.086-26.98 120.99709-173.801 45.423 1.982zm-115.0101-5.02 71.0411 3.102 4.688-107.38-1.075-.411-3.974 7.654z" fill="#000" opacity=".4"/><path d="m188.015 259.218 33.433 1.46-1.546 35.43-33.433-1.46-2.57 58.868-43.969-1.919 2.57-58.868-113.5581-4.957.086-26.98 120.9971-173.802 45.422 1.983zm-115.0101-5.02 71.0421 3.102 4.688-107.38-1.075-.411-3.974 7.654z" fill="#57b9d1"/><path d="m594.316 258.412 33.305-3.257 3.452 35.295-33.305 3.257 5.735 58.645-43.802 4.284-5.735-58.645-113.126 11.064-3.71-26.725 95.35-189.091 45.25-4.426zm-114.573 11.205 70.771-6.921-10.462-106.973-1.122-.255-2.857 8.137z" fill="#305271"/><path d="m594.316 258.412 33.305-3.257 3.452 35.295-33.305 3.257 5.735 58.645-43.802 4.284-5.735-58.645-113.126 11.064-3.71-26.725 95.35-189.091 45.25-4.426zm-114.573 11.205 70.771-6.921-10.462-106.973-1.122-.255-2.857 8.137z" fill="#000" opacity=".4"/><path d="m622.169 255.689 33.305-3.258 3.452 35.295-33.305 3.258 5.735 58.645-43.802 4.283-5.735-58.645-113.127 11.064-3.709-26.725 95.35-189.0919 45.25-4.425zm-114.574 11.205 70.771-6.922-10.46-106.972-1.123-.256-2.857 8.138z" fill="#305271"/><path d="m424.078 186.536-7.005-1.094-43.372-13.99-25.366-7.329c-5.928-2.048-13.612-2.755-21.948 1.493-11.982 6.108-45.055 36.884-45.055 36.884l23.811 24.548-11.216 49.68c12.552 35.684 37.123 39.772 37.123 39.772s16.145 1.448 35.2-5.819c22.818-8.703 46.772-29.093 49.771-37.862 1.8-5.264 3.285-16.318 4.467-28.809l36.124-14.725 9.789-49.969z" fill="#455a64"/><path d="m371.321 274.973c.011.014-.11.121-.351.31-.246.182-.59.479-1.08.792-.956.663-2.42 1.52-4.342 2.333-3.799 1.641-9.727 2.873-16.022 1.505-6.295-1.381-11.169-4.973-13.938-8.049-1.409-1.541-2.381-2.93-2.974-3.931-.315-.489-.504-.903-.651-1.17-.14-.272-.205-.419-.189-.428.039-.022.368.53 1.011 1.489.64.96 1.648 2.3 3.072 3.788 2.802 2.971 7.617 6.44 13.781 7.793 6.165 1.34 11.987.195 15.773-1.338 1.914-.759 3.389-1.557 4.371-2.163.983-.602 1.512-.967 1.539-.931z" fill="#263238"/><path d="m357.602 173.513c.009-.002.035.079.078.238.047.189.106.422.177.708.152.624.36 1.547.614 2.739.48 2.386 1.202 5.859 1.429 10.232.09 2.183.049 4.599-.411 7.143-.456 2.539-1.356 5.201-2.849 7.704-1.503 2.499-3.583 4.776-5.93 6.869-2.352 2.098-4.954 4.048-7.601 6.059-5.634 4.236-11.123 8.065-16.028 11.541-4.913 3.467-9.233 6.598-12.694 9.216l-.111.084-.105-.085c-3.092-2.504-5.434-4.663-6.946-6.25-.753-.796-1.291-1.453-1.626-1.919-.173-.228-.275-.425-.354-.547-.075-.126-.109-.192-.102-.196.019-.012.186.236.535.684.357.443.915 1.073 1.684 1.845 1.544 1.536 3.918 3.651 7.026 6.108l-.215-.001c3.433-2.663 7.735-5.832 12.632-9.324 4.89-3.501 10.366-7.341 15.99-11.57 2.644-2.008 5.244-3.953 7.575-6.023 2.329-2.068 4.378-4.3 5.86-6.738 1.471-2.441 2.368-5.038 2.835-7.533.47-2.499.533-4.887.467-7.051-.178-4.339-.841-7.813-1.26-10.207-.219-1.164-.391-2.085-.517-2.757-.051-.29-.093-.527-.127-.719-.026-.164-.034-.248-.026-.25z" fill="#263238"/><path d="m545.926 196.027c10.158-8.705 13.593-24.372 8.008-36.527-4.768-.492-9.537-.984-14.305-1.476 7.261-3.815 11.638-12.477 10.401-20.585-7.713 8.322-21.059 10.78-31.23 5.751-6.683-3.304-12.097-9.452-19.439-10.742-6.662-1.171-13.213 1.953-19.585 4.22-6.373 2.267-14.105 3.515-19.384-.713-4.185-3.352-5.483-9.225-5.211-14.58s1.82-10.58 2.151-15.932c.65-10.505-3.902-21.08-11.586-28.218-2.407-7.623-8.184-14.189-15.568-17.307-8.942-3.775-19.87-2.349-27.544 3.595-3.128 2.423-5.772 5.545-9.319 7.299-4.006 1.981-8.669 1.979-13.007 3.048-4.339 1.07-8.892 3.942-9.358 8.386l-1.746 9.111c-.294.653-.603 1.297-.959 1.92-3.687 6.466-11.228 10.718-12.874 17.978-.923 4.07.223 8.477-1.15 12.418-1.806 5.187-7.407 8.106-10.017 12.94-3.583 6.637-1.151 18.263 4.576 23.171s17.545 10.1 24.922 11.669c1.999-7.669 3.766-15.868 5.483-24.261 3.009 2.887 6.162 5.644 9.301 8.369 8.219 7.136 16.605 14.391 22.305 23.664 10.832 17.623 11.014 40.978 24.649 56.535 2.673 3.05 5.918 5.766 9.8 6.941 3.882 1.176 8.481.554 11.353-2.31 3.388-3.379 3.825-9.076 7.574-12.049 4.982-3.951 12.262-.799 17.618 2.627 3.877 2.48 7.753 5.104 12.15 6.463s9.505 1.271 13.245-1.412 5.382-8.399 2.685-12.128c-1.079-1.491-2.692-2.532-3.761-4.03s-1.38-3.869.084-4.984c1.617-1.232 3.883-.043 5.636.988 8.548 5.031 19.38 5.986 28.677 2.528s16.872-11.258 20.056-20.652c-4.913.755-10.027.156-14.631-1.715z" fill="#263238"/><path d="m537.021 117.547s.485.334 1.294 1.106c.791.779 1.955 1.992 2.945 3.89.484.949.903 2.078 1.1 3.37.183 1.285.114 2.763-.486 4.181-.577 1.41-1.591 2.793-3.074 3.729-.737.465-1.596.805-2.522.909-.926.109-1.898-.043-2.798-.407-3.712-1.513-5.574-5.801-9.589-7.713-3.911-2.069-8.911-2.21-13.715-1.111-4.858 1.113-9.484 3.712-14.216 6.368-4.723 2.644-9.762 5.507-15.552 6.501-2.863.525-5.809.557-8.6-.059-1.391-.325-2.732-.819-3.978-1.478-1.244-.668-2.359-1.53-3.357-2.487-1.979-1.947-3.365-4.35-4.306-6.816-.948-2.474-1.474-5.024-1.764-7.524-.53-5.022-.111-9.792-.063-14.229.092-4.435-.172-8.595-1.213-12.218-.495-1.815-1.16-3.488-1.908-5.008-.736-1.527-1.561-2.904-2.424-4.126-1.711-2.458-3.52-4.326-5.115-5.704-1.591-1.391-2.981-2.271-3.908-2.884-.462-.274-.823-.487-1.089-.645-.244-.148-.368-.227-.364-.235s.136.056.389.188c.273.147.644.346 1.118.601.947.587 2.363 1.444 3.985 2.82 1.626 1.363 3.472 3.225 5.222 5.69.883 1.225 1.728 2.609 2.483 4.147.768 1.531 1.452 3.219 1.965 5.054 1.078 3.665 1.364 7.874 1.29 12.324-.031 4.453-.43 9.219.108 14.169.293 2.467.817 4.978 1.751 7.4.927 2.415 2.283 4.751 4.199 6.63.966.924 2.043 1.755 3.244 2.398 1.204.634 2.5 1.111 3.849 1.426 2.707.596 5.584.567 8.395.052 5.681-.973 10.663-3.791 15.393-6.433 4.736-2.649 9.402-5.268 14.357-6.391 2.46-.542 4.936-.812 7.328-.62 1.199.06 2.363.298 3.495.565 1.114.336 2.211.697 3.2 1.25 4.146 2.033 6.014 6.339 9.526 7.755 1.709.743 3.614.461 5.008-.441 1.419-.879 2.412-2.205 2.98-3.56.59-1.364.672-2.777.509-4.036-.178-1.26-.573-2.371-1.035-3.312-.946-1.883-2.075-3.109-2.838-3.907-.389-.397-.697-.689-.91-.879-.209-.191-.314-.293-.309-.3z" fill="#263238"/><path d="m453.395 85.5011c-.012.034-.285-.037-.769-.196-.486-.152-1.172-.425-1.999-.807-1.655-.759-3.849-2.049-5.968-3.867-2.115-1.825-3.718-3.801-4.716-5.325-.501-.761-.873-1.398-1.097-1.856-.229-.455-.34-.714-.308-.731.076-.042.641.926 1.707 2.376 1.062 1.45 2.678 3.35 4.754 5.141 2.08 1.784 4.2 3.099 5.792 3.933 1.592.836 2.634 1.25 2.604 1.332z" fill="#455a64"/><path d="m486.636 153.706c-.015.046-.627-.154-1.758-.399-1.13-.249-2.788-.504-4.853-.595-2.066-.091-4.531.005-7.267.206-2.735.193-5.756.472-8.948.403-3.186-.078-6.252-.564-8.826-1.659-2.569-1.092-4.584-2.699-5.92-4.323-1.339-1.634-2.012-3.248-2.276-4.388-.126-.574-.202-1.022-.21-1.332-.023-.307-.027-.468-.009-.469.062-.007.09.642.414 1.748.318 1.101 1.024 2.645 2.362 4.204 1.335 1.55 3.318 3.082 5.824 4.118 2.507 1.038 5.511 1.505 8.654 1.581 3.151.069 6.159-.193 8.903-.361 2.744-.176 5.233-.235 7.319-.095 2.085.139 3.756.454 4.881.766.563.158.994.294 1.28.408.288.106.436.17.43.187z" fill="#455a64"/><path d="m545.573 199.18c.004.008-.094.053-.29.132-.195.08-.486.205-.893.285-.796.19-2.062.288-3.581-.161-1.503-.458-3.239-1.424-4.799-3.034-1.599-1.591-2.785-3.901-3.856-6.468-1.093-2.561-2.006-5.507-3.79-8.223-.836-1.392-1.969-2.644-3.175-3.874-1.281-1.155-2.662-2.288-4.242-3.208-6.28-3.785-14.529-5.335-22.951-4.843-8.467.445-16.435 2.105-23.804 2.62-7.357.661-14.121-.154-19.406-2.005-5.317-1.819-9.037-4.658-11.122-6.969-.554-.554-.964-1.116-1.331-1.594-.382-.466-.657-.894-.865-1.25-.201-.331-.361-.594-.485-.799-.107-.181-.157-.276-.15-.281.008-.005.074.081.195.253.135.196.309.45.527.768.221.344.508.76.9 1.213.377.464.796 1.011 1.356 1.55 2.112 2.247 5.817 5.003 11.094 6.759 5.253 1.787 11.932 2.557 19.25 1.875 7.329-.536 15.289-2.212 23.816-2.661 8.494-.496 16.849 1.079 23.226 4.953 1.604.942 3.01 2.102 4.31 3.288 1.226 1.261 2.375 2.546 3.222 3.972 1.808 2.792 2.7 5.761 3.767 8.315 1.044 2.563 2.184 4.836 3.725 6.406 1.507 1.595 3.19 2.565 4.649 3.042 1.474.468 2.709.405 3.499.252.799-.148 1.189-.354 1.204-.313z" fill="#455a64"/><path d="m388.286 85.4929c-3.88-.099-7.19 2.786-7.621 6.643l-8.088 84.2141c-1.398 11.842 14.09 37.229 26.781 38.629 12.816 1.414 14.068-4.796 15.733-16.017 2.783-18.747 3.705-25.8 3.698-25.692 0 0 16.502-.554 22.624-21.184 3.044-10.26 4.78-27.51 5.746-41.67.868-12.7451-5.464-29.3571-18.234-29.6841z" fill="#ffbe9d"/><path d="m441.583 121.59c-.138 1.434-1.465 2.499-2.965 2.383-1.497-.116-2.602-1.369-2.464-2.803.138-1.433 1.465-2.501 2.962-2.385 1.499.116 2.604 1.371 2.467 2.805z" fill="#263238"/><path d="m442.726 116.142c-.312.378-2.478-1.003-5.404-.792-2.925.169-4.968 1.823-5.31 1.487-.167-.148.133-.812 1.02-1.557.873-.742 2.397-1.51 4.22-1.629 1.823-.117 3.403.448 4.332 1.073.948.628 1.297 1.248 1.142 1.418z" fill="#263238"/><path d="m415.852 123.111c-.349.345-2.372-1.24-5.302-1.315-2.927-.117-5.122 1.33-5.43.962-.151-.164.207-.795 1.167-1.451.941-.653 2.533-1.269 4.358-1.21 1.826.062 3.343.778 4.207 1.491.881.717 1.17 1.369 1 1.523z" fill="#263238"/><path d="m421.313 138.597c.008-.167 1.857-.241 4.835-.23.753.021 1.475-.034 1.667-.524.246-.514.04-1.355-.206-2.266-.461-1.889-.944-3.868-1.451-5.943-1.989-8.452-3.325-15.362-2.984-15.439s2.23 6.711 4.219 15.163c.472 2.082.926 4.067 1.355 5.965.17.88.527 1.902.001 2.965-.273.528-.871.859-1.364.925-.495.083-.914.036-1.284.009-2.968-.231-4.799-.459-4.788-.625z" fill="#263238"/><path d="m418.79 173.271s-14.296-.953-27.227-11.244c0 0 5.21 15.425 26.559 16.231z" fill="#eb996e"/><path d="m416.261 118.099c-.463.71-3.229-.325-6.673-.705-3.438-.449-6.369-.101-6.65-.901-.121-.38.522-1 1.79-1.496 1.258-.497 3.153-.806 5.217-.56 2.063.251 3.83 1.001 4.934 1.783 1.113.784 1.589 1.539 1.382 1.879z" fill="#263238"/><path d="m442.293 112.212c-.481.691-2.535.104-4.963.196-2.431.006-4.458.676-4.967.004-.225-.327.065-1.01.931-1.686.853-.673 2.306-1.261 3.976-1.296 1.669-.032 3.145.497 4.024 1.135.893.64 1.209 1.311.999 1.647z" fill="#263238"/><path d="m414.233 143.906c1.326-.896 3.009-1.248 4.583-.957.805.148 1.61.481 2.135 1.109.688.823.772 1.984.745 3.057-.017.643-.064 1.296-.285 1.901s-.636 1.163-1.222 1.43c-.603.275-1.302.214-1.956.104-1.089-.182-2.18-.492-3.09-1.117s-1.623-1.604-1.726-2.703.51-2.284 1.547-2.66" fill="#eb996e"/><path d="m422.124 150.333c-.215.075-.599-.56-1.303-1.437-.696-.878-1.77-1.987-3.209-2.808-1.44-.82-2.942-1.178-4.052-1.33-1.113-.158-1.855-.164-1.9-.388-.045-.196.654-.591 1.92-.716 1.249-.131 3.082.094 4.806 1.077 1.723.982 2.852 2.443 3.375 3.585.538 1.153.554 1.956.363 2.017z" fill="#263238"/><path d="m371.454 170.555c6.944-1.38 12.303-7.353 14.694-14.016s2.267-13.952 1.631-21.003c-.082-.909-.228-1.924-.951-2.48-1.052-.81-2.56-.15-3.693.541-4.379 2.669-8.583 5.625-12.576 8.843-3.717 2.997-7.402 6.449-8.829 11.005-2.189 6.991 2.443 15.342 9.533 17.186" fill="#263238"/><path d="m531.205 168.929-32.78-52.684-9.053-18.5369s-2.887-3.828-5.889-7.1c-4.927-5.37-9.79-1.197-9.79-1.197s-.706-2.053-3.29-2.029c-3.08.03-4.532 2.31-4.532 2.31s-1.34-1.492-5.06-1.722c-.805-.05-1.6.261-2.356.76-1.215-1.07-3.455-2.616-5.606-1.832-1.681.613-11.871 8.36-14.38 12.262-1.239 1.9269 1.065 4.4309 4.161 3.2579 1.361-.515 2.731-.935 3.717-1.513 1.66-.9739 2.521-2.0259 2.521-2.0259s-2.569 4.5019-.008 5.2919c1.066.329 3.341.087 4.824-1.17.976-.827 2.109-1.896 3.177-2.942-.042.059-.086.118-.126.178-1.42 2.1 2.284 5.212 4.078 3.948.897-.632 1.687-1.266 2.391-1.894 4.16 3.02-1.618 6.888-4.057 6.689-3.778-.308-8.198-.294-11.28-.036-2.122.178-4.015.68-5.157 1.856-1.376 1.417.066 4.401 2.019 4.702 3.589.554 8.167 1.352 12.929 2.577 5.605 1.443 20.27 6.208 20.27 6.208l1.429 1.165 19.937 48.611-34.129 7.227-7.619 43.237 61.604-16.712c13.883-7.216 20.456-25.687 12.055-38.886z" fill="#ffbe9d"/><g fill="#eb996e"><path d="m477.929 124.288c-.005.017-.274-.047-.782-.186-.552-.157-1.288-.367-2.212-.63-1.965-.584-4.721-1.404-8.104-2.41-1.713-.518-3.583-1.083-5.588-1.689-2.006-.619-4.154-1.261-6.436-1.841-2.28-.58-4.69-1.163-7.217-1.492-1.233-.191-2.615-.073-3.916-.706-.319-.157-.628-.364-.88-.656-.122-.154-.232-.308-.298-.535l-.077-.533c-.075-.686-.092-1.41.131-2.123.229-.72.791-1.307 1.418-1.641.625-.346 1.278-.548 1.908-.757 1.314-.418 2.66-.489 3.954-.485 2.597.035 5.049.394 7.39.299 1.166-.037 2.312-.14 3.395-.334 1.087-.197 2.132-.482 3.149-.743 2.023-.538 4.01-.928 5.826-.742 1.81.151 3.381.659 4.7 1.196 1.323.539 2.403 1.124 3.277 1.609.873.489 1.533.898 1.98 1.175.445.281.674.436.665.451s-.256-.109-.718-.36c-.505-.271-1.179-.633-2.023-1.087-.885-.456-1.973-1.01-3.288-1.516-1.311-.505-2.861-.977-4.62-1.099-1.761-.156-3.672.238-5.689.793-1.012.27-2.063.566-3.176.776-1.118.208-2.27.318-3.462.363-2.386.108-4.868-.243-7.408-.269-1.267-.001-2.569.076-3.791.468-1.223.399-2.618.833-2.991 2.069-.187.593-.18 1.255-.108 1.899l.063.464c.026.096.106.227.193.332.186.215.438.39.712.525 1.123.562 2.464.472 3.751.664 2.569.342 4.985.939 7.273 1.534 2.29.596 4.436 1.254 6.436 1.891 1.999.628 3.865 1.214 5.573 1.75 3.364 1.073 6.104 1.946 8.059 2.57.911.302 1.638.543 2.183.724.494.167.753.265.748.282z"/><path d="m452.665 86.9791c.051.083-1.545 1.008-3.905 2.795-1.18.893-2.527 2.024-3.922 3.396-1.398 1.364-2.872 2.96-4.606 4.449-.85.723-1.653 1.496-1.846 2.4689-.099.474-.056.964.175 1.344.221.39.609.651 1.034.799.87.293 1.801.209 2.638.051.843-.16 1.614-.388 2.295-.658 2.735-1.109 3.991-2.5609 4.058-2.4639.021.02-.269.384-.902.9339-.631.548-1.63 1.269-3.016 1.87-.692.3-1.482.557-2.352.741-.861.178-1.862.303-2.876-.021-.498-.165-1.01-.489-1.306-1-.311-.505-.363-1.134-.246-1.7009.235-1.181 1.159-2.035 2.005-2.759 1.709-1.467 3.182-3.041 4.614-4.4 1.426-1.366 2.819-2.485 4.036-3.347 1.214-.869 2.248-1.493 2.969-1.91.725-.408 1.134-.619 1.153-.588z"/><path d="m465.166 91.117c.026.025-.387.513-1.155 1.376-.834.917-1.945 2.139-3.291 3.62-1.422 1.535-3.089 3.335-4.93 5.323-.948 1.018-2.081 1.965-3.463 2.642-.691.326-1.464.578-2.292.572-.817-.018-1.684-.26-2.303-.921-.327-.343-.487-.805-.546-1.248-.036-.448.026-.879.134-1.285.233-.81.605-1.522 1.059-2.185l.007-.011.018-.019c1.763-1.875 3.403-3.634 4.88-5.251 1.499-1.593 2.941-2.892 4.112-3.996.583-.547 1.12-1.072 1.71-1.378.614-.313 1.18-.298 1.619-.351.883-.062 1.405.018 1.36.113.016-.037-.468-.049-1.342.064-.425.075-.998.104-1.512.4-.534.303-1.033.82-1.606 1.39-1.143 1.139-2.553 2.462-4.016 4.061-1.436 1.618-3.078 3.413-4.842 5.307l.025-.029c-.409.602-.769 1.299-.972 2.022-.096.364-.144.736-.116 1.097.053.352.167.692.414.95.461.505 1.225.743 1.922.753.717.009 1.424-.213 2.071-.516 1.295-.624 2.411-1.538 3.327-2.506 1.872-1.96 3.567-3.735 5.013-5.248 1.396-1.435 2.548-2.619 3.413-3.508.375-.37.687-.679.947-.936.22-.21.342-.314.355-.302z"/><path d="m480.486 95.943c.052.038-.047.305-.395.583-.337.275-.959.529-1.658.409-.698-.124-1.197-.574-1.421-.947-.234-.38-.236-.664-.174-.682.073-.027.199.192.464.455.259.263.688.567 1.221.661.533.092 1.039-.049 1.372-.208.339-.158.532-.321.591-.271z"/><path d="m481.687 100.529c-.109.089-.86-.6641-1.52-1.7851-.664-1.119-.961-2.14-.831-2.192.136-.057.636.844 1.28 1.927.638 1.086 1.186 1.9591 1.071 2.0501z"/><path d="m483.896 118.411c-.052.025-.498-.736-.947-2.083-.451-1.342-.847-3.292-.822-5.467.033-2.176.48-4.115.967-5.445.485-1.335.951-2.083 1.002-2.057.167.053-1.421 3.24-1.448 7.508-.086 4.266 1.417 7.495 1.248 7.544z"/><path d="m510.818 187.699c-.097.011-.195-1.061-.718-2.688-.253-.816-.654-1.752-1.182-2.746-.551-.981-1.242-2.012-2.092-2.994-.865-.971-1.798-1.789-2.7-2.462-.917-.652-1.794-1.171-2.57-1.527-1.546-.729-2.596-.965-2.573-1.059.008-.035.274.001.752.098.481.086 1.16.295 1.97.624.815.322 1.738.822 2.699 1.472.946.672 1.92 1.507 2.813 2.509.879 1.014 1.581 2.088 2.125 3.113.521 1.037.898 2.016 1.112 2.866.222.846.342 1.546.365 2.034.033.488.034.756-.001.76z"/></g><path d="m396.439 284.01c-4.372-.909-8.324 1.061-8.324 1.061-4.454-1.971-9.94 1.428-9.94 1.428-1.612-.77-11.313 5.567-11.313 5.567l-12.085 5.702-64.531-47.945 18.292-19.028-25.628-26.669-30.045 30.906c-3.743 3.856-5.634 9.068-5.989 14.545-.761 11.746 5.937 22.722 16.436 28.043l76.035 38.998s8.063-.279 17.287-2.688c6.561-1.713 17.772-6.689 17.772-6.689s-.031.34 1.973 4.225c3.607 6.992 8.904-.552 8.904-.552s1.084 2.476 2.053 3.415c4.569 4.431 7.738-1.52 7.738-1.52s1.372 2.387 5.457.613c4.073-1.77-.589-14.061-.589-14.061s1.368 2.672 4.021-.71c2.654-3.382-3.152-13.731-7.524-14.641z" fill="#ffbe9d"/><path d="m387.311 285.685c-.01-.021.271-.184.836-.322.56-.148 1.437-.195 2.45.073 1.013.264 2.142.825 3.233 1.652.547.419 1.086.872 1.608 1.436.508.574.905 1.253 1.258 1.953 1.391 2.798 2.362 5.456 2.955 7.408.296.977.503 1.776.627 2.333.125.557.17.87.137.879-.076.02-.437-1.186-1.113-3.097-.677-1.91-1.696-4.525-3.07-7.289-.345-.683-.719-1.323-1.177-1.852-.467-.516-1.004-.985-1.517-1.392-1.037-.819-2.095-1.384-3.04-1.678-1.93-.603-3.174.028-3.187-.104z" fill="#eb996e"/><path d="m395.075 312.81c-.034.014-.229-.383-.562-1.108-.379-.821-.852-1.846-1.413-3.064-1.188-2.589-2.93-6.124-4.594-10.159-.813-2.022-1.551-3.954-2.626-5.464-1.046-1.526-2.443-2.521-3.711-3.095-1.274-.585-2.436-.674-3.204-.572-.774.103-1.175.312-1.195.262-.008-.016.087-.074.277-.17.187-.102.487-.21.886-.292.793-.171 2.032-.134 3.382.434 1.337.55 2.837 1.571 3.956 3.155 1.143 1.562 1.909 3.54 2.717 5.546 1.654 4.011 3.344 7.574 4.448 10.206.559 1.314.988 2.387 1.264 3.136.277.749.408 1.172.375 1.185z" fill="#eb996e"/><path d="m365.46 297.382c-.015-.033.352-.236 1.029-.574.78-.376 1.745-.84 2.885-1.389.618-.285 1.266-.607 2.018-.93.765-.309 1.661-.458 2.592-.377.926.091 1.892.418 2.711 1.036.823.632 1.433 1.476 1.986 2.366.547.895.977 1.822 1.403 2.688.427.867.868 1.689 1.302 2.468.87 1.555 1.69 2.946 2.297 4.162.615 1.211 1.032 2.232 1.281 2.948.252.716.351 1.125.321 1.135-.087.032-.626-1.556-1.928-3.912-.642-1.182-1.49-2.546-2.388-4.097-.448-.776-.903-1.603-1.341-2.477-.438-.875-.861-1.777-1.391-2.644-.528-.856-1.125-1.67-1.849-2.23-.734-.562-1.606-.868-2.452-.965-.85-.087-1.676.034-2.389.302-.715.287-1.404.603-2.022.863-1.167.489-2.154.903-2.953 1.238-.702.282-1.097.422-1.112.389z" fill="#eb996e"/><path d="m366.862 292.067c.016.032-.298.229-.882.558-.583.329-1.434.79-2.491 1.349-2.114 1.119-5.05 2.632-8.307 4.275-3.259 1.643-6.222 3.104-8.378 4.138-1.078.517-1.955.927-2.566 1.199s-.957.408-.974.375c-.016-.031.299-.227.883-.556.583-.328 1.435-.788 2.492-1.347 2.114-1.118 5.051-2.631 8.31-4.274 3.258-1.642 6.22-3.104 8.376-4.139 1.078-.517 1.955-.928 2.566-1.201.609-.273.955-.41.971-.377z" fill="#eb996e"/><path d="m291.105 249.926c-.027.171-3.414-.772-7.619-.249-4.213.473-7.285 2.181-7.352 2.021-.03-.052.692-.547 1.982-1.115 1.286-.57 3.164-1.166 5.308-1.423 2.144-.25 4.109-.109 5.493.145 1.388.251 2.205.564 2.188.621z" fill="#eb996e"/><path d="m433.624 76.7049c-15.966-.222-31.958 1.466-47.527 5.017-3.61.823-7.428 1.882-9.869 4.666-2.584 2.945-3.04 7.136-3.379 11.039-.412 4.7501-.824 9.5001-1.236 14.2501-.69 1.186-1.457 2.327-2.276 3.396-3.761 4.911-8.549 9.005-11.969 14.159s-5.308 11.995-2.523 17.518c1.684 3.341 4.805 5.695 7.086 8.661 3.867 5.028 5.13 11.512 7.392 17.438s6.338 11.971 12.569 13.162c2.97.567 6.056-.062 9.048.375 4.472.654 8.226 3.583 11.785 6.369s7.407 5.636 11.904 6.083 9.649-2.597 9.743-7.116c-3.302 1.916-7.683 1.793-10.872-.305-2.621-1.724-4.311-4.524-6.563-6.709-5.524-5.359-14.431-7.059-18.274-13.727-3.04-5.275-1.834-11.878-.454-17.808 1.196-5.143 2.408-10.717.926-15.655.112-.794.177-1.595.183-2.399.038-5.261-2.046-10.898.403-15.554 3.239-6.156 12.58-6.932 15.854-13.07 1.902-3.567 1.234-8.1281 3.314-11.5951 1.955-3.26 5.863-4.765 9.578-5.572s7.633-1.181 10.917-3.095c3.284-1.912 5.724-6.028 4.24-9.528z" fill="#263238"/><path d="m345.832 152.196s-.314-.352-.803-1.102c-.471-.759-1.064-1.969-1.415-3.643-.364-1.669-.406-3.802.098-6.18.529-2.36 1.583-4.992 3.462-7.416 1.84-2.443 4.337-4.714 7.217-6.827 2.87-2.135 6.128-4.123 9.379-6.442 3.217-2.334 6.522-5.028 8.9-8.647 1.201-1.792 2.053-3.83 2.698-5.968.645-2.141 1.085-4.381 1.602-6.637.508-2.258 1.095-4.497 2.023-6.584.903-2.093 2.235-3.991 3.93-5.433 1.687-1.445 3.659-2.464 5.672-3.121 2.014-.677 4.07-1.03 6.079-1.202 4.033-.347 7.852.098 11.396.362 3.546.29 6.862.453 9.861.128 3-.291 5.617-1.191 7.728-2.302 2.098-1.142 3.694-2.501 4.735-3.82 1.054-1.312 1.617-2.514 1.915-3.347.284-.839.389-1.299.416-1.292 0 0-.062.468-.317 1.326-.269.852-.808 2.086-1.855 3.439-1.034 1.36-2.637 2.765-4.755 3.95-2.128 1.153-4.785 2.093-7.827 2.412-3.034.353-6.382.209-9.934-.063-3.552-.246-7.352-.67-11.321-.314-1.979.176-3.998.53-5.963 1.196-1.965.646-3.873 1.642-5.497 3.036-1.63 1.393-2.91 3.216-3.789 5.257-.903 2.034-1.482 4.24-1.988 6.489-.515 2.248-.957 4.498-1.613 6.671-.655 2.167-1.535 4.266-2.769 6.099-2.443 3.701-5.802 6.418-9.047 8.757-3.28 2.324-6.54 4.294-9.402 6.4-2.872 2.084-5.349 4.311-7.18 6.702-1.864 2.366-2.922 4.939-3.47 7.255-.522 2.333-.511 4.43-.183 6.078.661 3.333 2.134 4.738 2.017 4.783z" fill="#455a64"/><path d="m348.76 157.448s-1.238-.895-3.074-2.945c-.895-1.034-1.962-2.383-2.67-4.235-.344-.921-.569-1.991-.456-3.125.102-1.132.565-2.29 1.349-3.278 1.617-1.983 4.299-3.05 7.11-3.642 1.415-.298 2.886-.527 4.362-.889 1.47-.362 2.966-.868 4.262-1.772 1.282-.917 2.328-2.197 3.099-3.675.786-1.473 1.339-3.109 1.917-4.77s1.163-3.377 2.038-5.008c.849-1.636 2.12-3.139 3.754-4.151 1.632-1.014 3.444-1.572 5.207-2.032 1.768-.456 3.52-.828 5.169-1.387 3.341-1.048 5.964-3.343 7.942-5.85 2.008-2.511 3.479-5.218 4.928-7.705 1.44-2.493 2.873-4.791 4.49-6.659 1.592-1.885 3.391-3.29 5.135-4.188 1.746-.906 3.417-1.324 4.791-1.445 1.379-.107 2.457.059 3.152.258.699.192 1.04.364 1.04.364-.009.027-.366-.105-1.065-.262-.695-.165-1.759-.295-3.109-.159-1.345.15-2.975.588-4.674 1.501-1.701.908-3.438 2.296-4.99 4.169-1.574 1.855-2.975 4.139-4.396 6.636-1.429 2.49-2.895 5.225-4.926 7.789-1.01 1.279-2.169 2.512-3.528 3.568-1.347 1.068-2.935 1.907-4.626 2.466-1.688.575-3.451.951-5.203 1.406-1.747.456-3.508 1.005-5.061 1.972-1.551.964-2.748 2.371-3.576 3.957-.849 1.577-1.431 3.268-2.012 4.928-.582 1.66-1.144 3.316-1.96 4.836-.799 1.522-1.904 2.873-3.265 3.836-1.374.948-2.929 1.461-4.427 1.822-1.505.361-2.981.581-4.383.867-2.77.561-5.372 1.593-6.911 3.451-.747.924-1.196 2.01-1.306 3.08-.119 1.07.079 2.095.4 2.992.659 1.804 1.686 3.159 2.55 4.202.878 1.043 1.631 1.793 2.145 2.297.24.234.433.423.586.572.134.131.198.201.192.208z" fill="#455a64"/><path d="m471.857 92.8501c.027.023-.156.298-.515.774-.36.476-.896 1.151-1.579 1.97-1.365 1.637-3.325 3.841-5.62 6.1479-1.145 1.114-2.214 2.375-3.684 2.838-.712.222-1.471.23-2.11-.023-.647-.25-1.093-.754-1.357-1.244-.536-1.013-.448-1.96-.375-2.543.091-.598.206-.9109.237-.9039.039.007-.008.3359-.035.9229-.013.574-.025 1.468.493 2.342.256.427.653.835 1.191 1.023.535.194 1.187.177 1.811-.031 1.273-.413 2.309-1.616 3.46-2.748 2.286-2.2979 4.28-4.4519 5.712-6.0229 1.432-1.572 2.314-2.55 2.371-2.502z" fill="#eb996e"/><path d="m479.496 92.8539c.026.025-.189.301-.601.78s-1.02 1.159-1.78 1.993c-.797.862-1.702 1.841-2.689 2.91-.514.548-1.048 1.117-1.601 1.7061-.559.589-1.152 1.212-1.877 1.734-.72.519-1.556.911-2.437.965-.869.077-1.795-.29-2.27-.99-.242-.339-.384-.751-.371-1.161.01-.411.167-.772.341-1.0731.368-.596.748-1.058 1.077-1.523.668-.909 1.216-1.639 1.604-2.137s.617-.763.646-.743c.029.021-.143.326-.481.859-.337.534-.839 1.296-1.469 2.232-.303.468-.689.98-1.002 1.523-.324.5401-.374 1.2021.042 1.7411.389.544 1.1.826 1.848.762.75-.051 1.498-.396 2.167-.879.674-.485 1.251-1.082 1.812-1.6631.56-.581 1.102-1.144 1.623-1.685 1.017-1.04 1.949-1.993 2.77-2.833.794-.801 1.443-1.443 1.9-1.879s.722-.664.748-.639z" fill="#eb996e"/><path d="m459.374 74.601 8.037-14.487c-3.673-5.836-5.83-12.727-5.901-20.128-.204-21.285 16.884-38.704 38.168-38.909 21.284-.203997 38.704 16.884 38.909 38.168.204 21.284-16.884 38.704-38.169 38.909-8.887.085-17.095-2.852-23.663-7.844l.013.017z" fill="#fff"/><path d="m459.374 74.601c.898-.228 6.34-1.606 17.365-4.399l-.071.206-.013-.017-.611-.776.791.593c2.212 1.656 4.852 3.282 7.944 4.624 3.095 1.318 6.631 2.382 10.523 2.846 1.943.221 3.971.355 6.051.226 1.039-.073 2.098-.111 3.164-.214 1.058-.174 2.131-.35 3.218-.528 4.31-.907 8.704-2.601 12.79-5.204 4.084-2.594 7.852-6.094 10.856-10.371 2.999-4.27 5.253-9.316 6.276-14.782 1.012-5.459.862-11.297-.625-16.931-1.497-5.614-4.24-11.086-8.312-15.571l-1.571-1.695c-.516-.57-1.131-1.038-1.689-1.561-.584-.493-1.112-1.05398-1.739-1.48898l-1.84-1.34799c-.596-.473-1.251-.852-1.903-1.233l-1.941-1.15501c-.679-.322-1.355-.64299-2.031-.96299-.681-.306-1.336-.671-2.049-.889-5.548-2.144-11.452-2.928-17.088-2.471-5.637.454-11.02 2.116-15.631 4.76-4.626 2.624-8.52 6.10797-11.518 9.99097-3.008 3.885-5.118 8.161-6.417 12.415-1.289 4.275-1.619 8.509-1.583 12.431.267 7.897 2.941 14.379 5.796 18.952l.04.063-.036.064c-5.189 9.19-7.71 13.655-8.146 14.426.424-.777 2.878-5.28 7.928-14.547l.003.127c-2.908-4.581-5.642-11.102-5.945-19.071-.054-3.957.264-8.236 1.553-12.561 1.298-4.304 3.42-8.635 6.453-12.572 3.024-3.935 6.957-7.46997 11.636-10.13497 4.664-2.685 10.116-4.377 15.825-4.844003 5.708-.469 11.692.320003 17.317 2.490003.723.221 1.387.589 2.077.899.684.324 1.37.649 2.058.975l1.968 1.16899c.661.387 1.325.771 1.929 1.25l1.865 1.36601c.636.441 1.171 1.00897 1.763 1.50797.566.53 1.188 1.004 1.712 1.582l1.592 1.718c4.126 4.546 6.906 10.094 8.42 15.785 1.504 5.711 1.651 11.626.62 17.155-1.042 5.537-3.333 10.646-6.377 14.964-3.049 4.326-6.87 7.86-11.008 10.475-4.14 2.624-8.59 4.324-12.949 5.228-1.099.177-2.184.351-3.254.523-1.078.1-2.147.136-3.197.206-2.101.122-4.149-.02-6.109-.251-3.927-.485-7.49-1.575-10.603-2.92-3.11-1.37-5.76-3.024-7.975-4.707l.181-.183.013.017.124.16-.195.046c-11.062 2.634-16.524 3.934-17.425 4.148z" fill="#263238"/><path d="m489.362 33.011 5.014-.048s-.04-4.21 4.334-4.327c2.272-.061 3.464 1.416 3.954 2.552.568 1.319.415 2.829-.318 4.064-.837 1.41-2.688 2.703-6.073 2.14l.109 11.305 4.958-.048-.064-6.622s6.936-1.864 6.863-9.527c-.07-7.332-6.662-8.972-9.476-8.945-2.154.021-9.481.612-9.301 9.456z" fill="#e8505b"/><path d="m496.413 51.0295 5.032-.0483.045 4.7-5.032.0483z" fill="#e8505b"/></svg>