<svg fill="none" height="621" viewBox="0 0 662 621" width="662" xmlns="http://www.w3.org/2000/svg"><path d="m.855957 108.653 437.408043 62.962 58.702 59.24z" fill="#85974e"/><path d="m.855957 108.653 437.408043 62.962 58.702 59.24z" fill="#5cbad2" opacity=".6"/><path d="m.855957 108.653 437.408043 62.962-20.298 85.66z" fill="#5cbad2"/><path d="m.855957 108.653 437.408043 62.962-20.298 85.66z" fill="#000" opacity=".2"/><path d="m408.983 9.48237 25.397 119.01163c1.376 6.444-2.772 12.843-9.217 14.219l-226.558 48.349c-6.445 1.376-12.844-2.772-14.22-9.217l-25.397-119.0113c-.72-3.3692.072-6.7346 1.911-9.3728 1.684-2.3907 4.23-4.1905 7.306-4.8467l226.558-48.349267c3.076-.656195 6.136-.053725 8.65 1.440937 2.753 1.65776 4.852 4.40726 5.57 7.7765z" fill="#5cbad2"/><path d="m408.983 9.48237 25.397 119.01163c1.376 6.444-2.772 12.843-9.217 14.219l-226.558 48.349c-6.445 1.376-12.844-2.772-14.22-9.217l-25.397-119.0113c-.72-3.3692.072-6.7346 1.911-9.3728 1.684-2.3907 4.23-4.1905 7.306-4.8467l226.558-48.349267c3.076-.656195 6.136-.053725 8.65 1.440937 2.753 1.65776 4.852 4.40726 5.57 7.7765z" fill="#4a6897" opacity=".96"/><path d="m403.413 1.70598-75.706 92.92642c-14.458 17.7476-39.322 23.0536-59.766 12.7536l-107.044-53.9269c1.685-2.3907 4.231-4.1905 7.306-4.8467l226.559-48.349279c3.079-.656195 6.137-.051807 8.651 1.442859z" fill="#334868"/><path d="m.855957 108.653 360.779043 85.737 56.331 62.885z" fill="#5cbad2"/><path d="m.855957 108.653 360.779043 85.737 56.331 62.885z" fill="#5cbad2" opacity=".6"/><path d="m.855957 108.653 360.779043 85.737-70.127 84.53z" fill="#5cbad2"/><path d="m483.415 309.54c-.469 0-.946-.088-1.411-.272l-58.777-23.27c-1.971-.779-2.936-3.009-2.155-4.981.779-1.969 2.999-2.94 4.981-2.155l58.777 23.27c1.971.779 2.936 3.009 2.155 4.981-.596 1.506-2.041 2.427-3.57 2.427z" fill="#5cbad2"/><path d="m483.415 309.54c-.469 0-.946-.088-1.411-.272l-58.777-23.27c-1.971-.779-2.936-3.009-2.155-4.981.779-1.969 2.999-2.94 4.981-2.155l58.777 23.27c1.971.779 2.936 3.009 2.155 4.981-.596 1.506-2.041 2.427-3.57 2.427z" fill="#000" opacity=".3"/><path d="m479.954 275.835c-.469 0-.946-.087-1.411-.271l-31.566-12.498c-1.971-.779-2.936-3.009-2.155-4.981.777-1.969 3.001-2.94 4.981-2.155l31.567 12.498c1.97.779 2.935 3.009 2.154 4.981-.598 1.506-2.041 2.426-3.57 2.426z" fill="#5cbad2"/><path d="m479.954 275.835c-.469 0-.946-.087-1.411-.271l-31.566-12.498c-1.971-.779-2.936-3.009-2.155-4.981.777-1.969 3.001-2.94 4.981-2.155l31.567 12.498c1.97.779 2.935 3.009 2.154 4.981-.598 1.506-2.041 2.426-3.57 2.426z" fill="#fff" opacity=".5"/><path d="m413.962 308.959c-.468 0-.946-.088-1.41-.273l-57.31-22.69c-1.971-.779-2.936-3.011-2.155-4.981.779-1.971 3.007-2.936 4.981-2.155l57.31 22.691c1.97.779 2.935 3.008 2.155 4.981-.597 1.508-2.042 2.427-3.571 2.427z" fill="#5cbad2"/><path d="m413.962 308.959c-.468 0-.946-.088-1.41-.273l-57.31-22.69c-1.971-.779-2.936-3.011-2.155-4.981.779-1.971 3.007-2.936 4.981-2.155l57.31 22.691c1.97.779 2.935 3.008 2.155 4.981-.597 1.508-2.042 2.427-3.571 2.427z" fill="#000" opacity=".3"/><path d="m555.392 69.7067c-.226 1.1147-.999 1.8975-1.729 1.7498-.729-.1478-1.135-1.1704-.909-2.2852.226-1.1147 1-1.8976 1.729-1.7498.729.1496 1.136 1.1723.909 2.2852z" fill="#263238"/><path d="m560.728 64.3496c-.18 0-.358-.0729-.491-.2149-1.997-2.1643-4.371-1.8113-4.476-1.7998-.353.0633-.706-.1861-.766-.5506-.059-.3627.185-.7061.545-.7675.127-.023 3.17-.5046 5.68 2.2084.249.2705.232.6927-.039.944-.128.1209-.29.1804-.453.1804z" fill="#263238"/><path d="m593.199 127.977c1.521-5.053 3.197-10.836-.269-12.648-3.812-1.993-24.678-4.025-31.873-.284-7.195 3.742-5.154 13.992-5.154 13.992z" fill="#263238"/><path d="m637.455 606.476c-1.444 0-2.839-.22-3.384-.93-.228-.298-.413-.816.011-1.585.221-.403.576-.666 1.048-.777 2.07-.476 5.952 2.183 6.117 2.295.109.075.163.205.138.337-.025.129-.121.233-.249.263-.724.171-2.226.397-3.681.397zm-1.761-2.688c-.146 0-.284.014-.411.044-.283.068-.487.215-.615.449-.302.549-.123.781-.066.858.603.791 3.485.804 5.588.447-1.215-.746-3.214-1.798-4.496-1.798z" fill="#5cbad2"/><path d="m641.057 606.085c-.054 0-.11-.014-.16-.04-1.458-.791-4.278-3.878-3.981-5.451.054-.284.265-.777 1.063-.877.507-.058.996.08 1.422.43 1.638 1.337 1.974 5.405 1.989 5.577.01.121-.048.24-.151.305-.056.041-.119.056-.182.056zm-2.848-5.712c-.048 0-.099.002-.149.01-.436.051-.472.253-.49.337-.174.931 1.622 3.264 3.072 4.361-.165-1.187-.614-3.557-1.665-4.416-.242-.196-.491-.292-.768-.292z" fill="#5cbad2"/><path d="m552.812 606.478c-1.807 0-3.553-.249-4.138-1.063-.206-.284-.367-.769.027-1.46.22-.387.579-.65 1.061-.781 2.333-.623 7.272 2.17 7.479 2.289.121.067.186.204.163.344-.023.136-.127.245-.265.274-.9.178-2.64.397-4.327.397zm-2.233-2.736c-.234 0-.451.025-.645.077-.309.084-.522.236-.654.466-.238.416-.151.62-.065.739.635.88 4.194.927 6.838.562-1.307-.672-3.826-1.844-5.474-1.844z" fill="#5cbad2"/><path d="m557.074 606.085c-.046 0-.094-.01-.136-.029-1.7-.762-5.07-3.809-4.814-5.405.061-.374.326-.84 1.243-.932.681-.066 1.305.122 1.851.571 1.794 1.474 2.172 5.269 2.188 5.43.011.117-.041.234-.136.304-.06.042-.127.061-.196.061zm-3.438-5.712c-.066 0-.133.004-.202.01-.601.061-.639.297-.652.376-.154.957 2.135 3.352 3.872 4.393-.181-1.107-.683-3.38-1.862-4.347-.353-.29-.732-.432-1.156-.432z" fill="#5cbad2"/><g fill="#7b4b33"><path d="m572.573 605.753h-14.095l-1.404-32.641h14.095z"/><path d="m621.45 136.011c5.081 9.928 9.745 19.857 14.174 30.036 4.395 10.178 8.569 20.462 12.162 31.257l1.313 4.093c.22.727.562 1.922.74 2.772.181.887.373 1.802.476 2.613.509 3.343.597 6.363.654 9.333.094 5.917-.305 11.56-.798 17.172-1.074 11.207-2.822 22.111-5.224 33.046l-10.519-1.166c-.136-10.808-.238-21.722-.612-32.369-.19-5.313-.493-10.614-1.032-15.612-.272-2.483-.673-4.918-1.14-6.956-.109-.539-.253-.949-.376-1.395-.149-.475-.217-.587-.424-1.157l-1.447-3.628c-4.008-9.708-8.52-19.503-13.122-29.248l-13.927-29.228z"/><path d="m634.577 261.876-4.911 9.186 15.687 4.377s2.987-7.391-.57-13.218z"/><path d="m623.651 284.307 14.425 1.14 7.279-10.006-15.689-4.379z"/><path d="m554.495 71.625s-3.84 5.9134-7.259 8.4461c1.597 2.241 5.119 2.0818 5.119 2.0818z"/><path d="m587.13 85.3787c-2.022 10.3111-4.038 29.2063 3.176 36.0873 0 0-2.819 10.46-21.979 10.46-21.069 0-10.069-10.459-10.069-10.459 11.499-2.745 11.201-11.278 9.198-19.288z"/><path d="m551.765 146.224c-11.952-.934-23.441-2.481-35.126-4.67-5.815-1.116-11.643-2.366-17.466-3.933-5.833-1.564-11.675-3.337-17.581-5.802-1.475-.607-2.966-1.288-4.455-1.996-1.867-.923-3.419-1.882-4.785-2.791-2.773-1.831-5.144-3.719-7.506-5.601-4.693-3.759-9.062-7.665-13.372-11.614-8.58-7.936-16.721-16.1497-24.561-24.7915l7.059-7.8859 27.838 20.0063c4.596 3.3141 9.233 6.5481 13.796 9.6011 2.273 1.51 4.597 2.943 6.711 4.137 1.073.608 2.027 1.063 2.763 1.354 1.142.447 2.297.889 3.51 1.294 9.745 3.25 20.764 5.337 31.708 7.101 10.958 1.734 22.278 3.162 33.213 4.296z"/><path d="m434.315 77.3318-9.676-11.2954-10.328 11.4393s6.358 10.6967 16.485 9.0083z"/><path d="m410.98 52.8625-3.723 14.7395 7.053 9.8755 10.329-11.4412z"/><path d="m593.034 74.899c-3.621 13.5115-5.054 21.6046-13.393 27.224-12.542 8.452-28.159-1.247-28.648-15.5698-.439-12.8917 5.557-32.8232 20.056-35.5458 14.287-2.6824 25.607 10.3801 21.985 23.8916z"/><path d="m573.76 75.125c-1.472 3.3558-4.258 5.996-6.954 7.4004-4.056 2.1106-6.333-.9766-5.416-5.0327.825-3.6513 3.931-9.1503 8.101-9.6012 4.111-.4451 5.951 3.3961 4.269 7.2335z"/><path d="m657.204 605.753h-14.096l-7.084-32.641h14.095z"/></g><path d="m642.106 604.12h15.835c.576 0 1.074.401 1.201.963l2.784 12.529c.29 1.299-.733 2.529-2.064 2.506-5.528-.094-8.214-.42-15.179-.42-4.285 0-13.111.445-19.028.445-5.787 0-6.689-5.85-4.267-6.379 10.86-2.376 14.952-5.653 18.429-8.779.627-.562 1.447-.865 2.289-.865z" fill="#263238"/><path d="m558.57 604.12h15.394c.576 0 1.075.401 1.201.963l2.784 12.529c.288 1.299-.698 2.529-2.028 2.508-5.552-.094-13.576-.42-20.555-.42-8.16 0-15.207.445-24.778.445-5.787 0-7.393-5.85-4.969-6.38 11.027-2.411 20.029-2.67 29.559-8.545 1.032-.639 2.176-1.1 3.392-1.1z" fill="#263238"/><path d="m615.544 124.652c13.21 3.03 26.568 41.655 26.568 41.655l-27.194 19.506s-7.596-17.99-15.069-33.723c-7.833-16.486 2.187-30.534 15.695-27.438z" fill="#5cbad2"/><path d="m615.544 124.652c13.21 3.03 26.568 41.655 26.568 41.655l-27.194 19.506s-7.596-17.99-15.069-33.723c-7.833-16.486 2.187-30.534 15.695-27.438z" fill="#85974e"/><path d="m607.921 145.756-5.392 12.069c5.584 12.049 10.687 23.983 12.05 27.169-.192-14.256-2.898-31.947-6.658-39.238z" fill="#5cbad2"/><path d="m607.921 145.756-5.392 12.069c5.584 12.049 10.687 23.983 12.05 27.169-.192-14.256-2.898-31.947-6.658-39.238z" fill="#000" opacity=".6"/><path d="m536.576 125.378s-15.002 16.946-.834 121.831h75.391c.52-11.573-6.752-68.029 4.409-122.558 0 0-12.922-2.595-25.238-3.187-9.634-.465-23.579-.772-32.048.002-11.163 1.018-21.68 3.912-21.68 3.912z" fill="#5cbad2"/><path d="m536.576 125.378s-15.002 16.946-.834 121.831h75.391c.52-11.573-6.752-68.029 4.409-122.558 0 0-12.922-2.595-25.238-3.187-9.634-.465-23.579-.772-32.048.002-11.163 1.018-21.68 3.912-21.68 3.912z" fill="#85974e"/><path d="m531 145.756c-.499 3.972-.882 8.673-1.132 14.218 6.236-1.938 13.987-5.047 20.991-9.862z" fill="#5cbad2"/><path d="m531 145.756c-.499 3.972-.882 8.673-1.132 14.218 6.236-1.938 13.987-5.047 20.991-9.862z" fill="#000" opacity=".6"/><path d="m563.249 147.813c-10.086 8.937-48.618 8.043-48.618 8.043l-1.27-37.249s21.845 3.202 39.274 2.847c21.532-.436 21.683 16.551 10.614 26.359z" fill="#5cbad2"/><path d="m563.249 147.813c-10.086 8.937-48.618 8.043-48.618 8.043l-1.27-37.249s21.845 3.202 39.274 2.847c21.532-.436 21.683 16.551 10.614 26.359z" fill="#85974e"/><path d="m557.077 573.12.722 16.825h14.1l-.721-16.825z" fill="#7b4b33"/><path d="m650.125 573.12h-14.103l3.659 16.825h14.103z" fill="#7b4b33"/><g fill="#263238"><path d="m565.562 55.6966c-12.644-5.8425-16.641-31.3458 19.734-25.0294 0 0-5.482 6.0765 5.654 9.9139 11.134 3.8355 1.813 27.6868-25.388 15.1155z"/><path d="m584.801 37.5322c8.607 4.8141 20.277 7.6844 19.104 14.5092-1.433 8.3425 7.055 3.1237 5.079 15.553-1.291 8.1161-16.261 32.7096-26.798 31.5089-15.841-1.8055-13.834-26.0022-13.886-38.7174-.032-7.4945-.384-32.2956 16.501-22.8537z"/><path d="m566.4 48.3076c-3.837.9056-8.924 23.0244 5.94 25.0506 17.109 2.3312-5.94-25.0506-5.94-25.0506z"/><path d="m566.79 56.1589c-4.703.4144-15.31-5.2457-14.043-13.759 0 0 6.757 9.9619 14.043 13.759z"/><path d="m594.866 59.5086c2.847-1.4486 9.332-4.7334 11.099-14.0525 0 0 6.334 17.6808-11.099 14.0525z"/><path d="m610.881 59.3223c-1.422-.8327-4.649-2.7303-9.183-.9056 0 0 5.908-7.6652 9.183.9056z"/></g><path d="m562.485 247.211s15.997 107.72 24.778 148.076c9.617 44.193 45.848 191.4 45.848 191.4h25.816s-23.89-143.64-29.377-187.394c-5.956-47.487-18.418-152.082-18.418-152.082z" fill="#5cbad2"/><path d="m562.485 247.211s15.997 107.72 24.778 148.076c9.617 44.193 45.848 191.4 45.848 191.4h25.816s-23.89-143.64-29.377-187.394c-5.956-47.487-18.418-152.082-18.418-152.082z" fill="#fff" opacity=".5"/><path d="m628.989 577.176c-.109 0 2.665 9.914 2.665 9.914h29.045l-.533-8.847z" fill="#5cbad2"/><path d="m628.989 577.176c-.109 0 2.665 9.914 2.665 9.914h29.045l-.533-8.847z" fill="#000" opacity=".1"/><path d="m572.596 285.591c18.496 3.626 16.539 72.603 14.313 108.08-5.334-25.077-13.143-73.333-18.477-107.581 1.228-.614 2.61-.806 4.164-.499z" fill="#5cbad2"/><path d="m572.596 285.591c18.496 3.626 16.539 72.603 14.313 108.08-5.334-25.077-13.143-73.333-18.477-107.581 1.228-.614 2.61-.806 4.164-.499z" fill="#fff" opacity=".4"/><path d="m535.743 247.211s-1.941 105.389-.408 148.373c1.594 44.71 17.21 191.105 17.21 191.105h23.879s.876-143.782 1.937-187.691c1.159-47.87 6.938-151.785 6.938-151.785h-49.556z" fill="#5cbad2"/><path d="m535.743 247.211s-1.941 105.389-.408 148.373c1.594 44.71 17.21 191.105 17.21 191.105h23.879s.876-143.782 1.937-187.691c1.159-47.87 6.938-151.785 6.938-151.785h-49.556z" fill="#fff" opacity=".5"/><path d="m557.519 569.535c-.121 0-.225-.092-.238-.214-4.208-40.518-14.133-138.555-15.39-173.727-1.28-35.901-.117-116.446.27-140.278.002-.131.11-.236.24-.236h.004c.133.002.238.111.236.244-.387 23.828-1.55 104.363-.27 140.251 1.254 35.158 11.176 133.182 15.386 173.696.015.13-.081.249-.213.263-.008.001-.018.001-.025.001z" fill="#5cbad2"/><path d="m557.519 569.535c-.121 0-.225-.092-.238-.214-4.208-40.518-14.133-138.555-15.39-173.727-1.28-35.901-.117-116.446.27-140.278.002-.131.11-.236.24-.236h.004c.133.002.238.111.236.244-.387 23.828-1.55 104.363-.27 140.251 1.254 35.158 11.176 133.182 15.386 173.696.015.13-.081.249-.213.263-.008.001-.018.001-.025.001z" fill="#fff" opacity=".4"/><path d="m547.95 577.176c-.11 0 1.347 9.914 1.347 9.914h29.047l.785-8.847z" fill="#5cbad2"/><path d="m547.95 577.176c-.11 0 1.347 9.914 1.347 9.914h29.047l.785-8.847z" fill="#000" opacity=".1"/></svg>