<svg fill="none" height="850" viewBox="0 0 738 850" width="738" xmlns="http://www.w3.org/2000/svg"><path d="m639.65 311.64c-71.06-86-220.28-309.16003-411.61-219.95-191.3301 89.21-405.33 620.54 13.62 621.15 157.39.23 384.06 20.78 450.47-39.34 110.37-99.92-8.13-308.16-52.48-361.86z" fill="#5cbad2"/><path d="m110.66 635.48c-19.66 0-35.66-17.68-35.66-39.41v-555.88c0-21.74 16-39.41998 35.65-39.41998h516.69c19.66 0 35.65 17.67998 35.65 39.41998v555.88c0 21.73-16 39.41-35.65 39.41z" fill="#adc964"/><path d="m627.34 13.1802h-516.68c-12.8101 0-23.2401 12.12-23.2401 27v555.8898c0 14.88 10.43 27 23.2401 27h516.68c12.82 0 23.24-12.12 23.24-27v-555.8798c0-14.89-10.42-27.01-23.24-27.01z" fill="#fff"/><path d="m596.31 534.28c4.032-20.485 1.899-41.706-6.129-60.98-8.028-19.273-21.591-35.733-38.973-47.299s-37.804-17.717-58.682-17.678c-20.878.04-41.276 6.27-58.614 17.902s-30.838 28.143-38.793 47.447c-7.954 19.304-10.006 40.533-5.896 61.003s14.197 39.261 28.987 53.999c14.789 14.737 33.616 24.758 54.1 28.796 13.605 2.683 27.605 2.66 41.2-.07 13.595-2.729 26.52-8.109 38.035-15.835 11.515-7.725 21.396-17.644 29.077-29.189s13.012-24.49 15.688-38.096zm-189.24-37.28c3.333-16.942 11.616-32.514 23.8-44.749 12.183-12.235 27.722-20.581 44.65-23.985 16.927-3.404 34.484-1.711 50.45 4.864s29.623 17.736 39.245 32.073c9.623 14.337 14.777 31.205 14.813 48.471.035 17.267-5.051 34.156-14.614 48.532s-23.175 25.594-39.114 32.234-33.488 8.404-50.43 5.07c-22.715-4.473-42.724-17.785-55.626-37.009-12.902-19.223-17.641-42.784-13.174-65.501z" fill="#305271"/><path d="m421 832.65 42-217c.242-1.233.725-2.405 1.42-3.451.696-1.046 1.591-1.945 2.633-2.645 1.043-.7 2.214-1.188 3.445-1.436s2.5-.25 3.732-.008 2.405.725 3.451 1.42c1.046.696 1.945 1.59 2.645 2.633s1.188 2.214 1.436 3.445c.247 1.231.25 2.499.008 3.732l-42 217c-.234 1.239-.711 2.42-1.404 3.475-.693 1.054-1.587 1.961-2.632 2.668s-2.219 1.2-3.455 1.451-2.51.255-3.748.012c-1.238-.244-2.415-.73-3.464-1.43-1.049-.701-1.949-1.602-2.648-2.652s-1.184-2.228-1.426-3.466c-.241-1.239-.236-2.512.017-3.748z" fill="#305271"/><path d="m620.38 416.06c-6.42 7.24-32.91 32.19-37.69 35.12s-42.66-12-80.41-23.9c-14.36-3.77-26.36-10.94-17.93-19.35s16.85-2.1 24.65 5.07c-.5.25 54.92 14.18 61 12.17 3.26-2.22 17.66-20.82 20.28-22.9" fill="#ffbe9d"/><path d="m608.3 429.2c-9.27 8.72-22.14 19.85-25.61 22-4.77 2.93-52.55-13.25-80.41-23.9-14.36-3.77-26.36-10.94-17.93-19.35s15.06-2.41 24.65 5.05c-.5.25 54.92 14.18 61 12.17 3.26-2.22 16.82-18 16.82-18" stroke="#305271" stroke-linecap="round" stroke-linejoin="round" stroke-width="3"/><path d="m628.64 398.45c-2.3 18.18-12.23 24-15.35 28.4-10-7.64-14.26-19-25.61-24.36 3.11-16.28 10.46-36.62 18.5-39.31s25.37 6.43 22.46 35.27z" fill="#adc964"/><path d="m644.21 786.85c.39 6.72.74 22.21.85 24.16.17 2.93 4.09 32.33 1.5 33.13s-80.46 2.16-70.88-4.57 41.77-22.06 41.43-28l-2.06-27z" fill="#52382b"/><path d="m550.45 792c-.87 14.65-2.62 34.69-2 38.94.82 6.059 1.231 12.166 1.23 18.28l-70.79-1.9c-.505-.062-.965-.323-1.278-.724s-.454-.911-.392-1.416c.035-.294.138-.575.301-.822.163-.246.382-.451.639-.598 31.1-18 44.54-29.77 44.54-32.77l2.87-26.06" fill="#52382b"/><path d="m546.88 292.52-6 12.28c-2.32 7.62-4 17.79-.38 22.14s9.83 5.11 15.45 7.71l-1 22c-7.94.53-11.79 1.24-15.21 3.78 6.55 5.22 16.1 10.4 30.1 8.25s20.07-11 20.07-11l-15.65-2.76v-21.56c6-3.62 7.31-6.62 7.7-13.54l-.93-7.89-26.48-19.34z" fill="#ffbe9d"/><path d="m519 501.48c-1.787 95.5-3.603 191-5.45 286.5 9.78 2.36 24.86 5.31 33.51 5.84s10.45-.08 16.9-3.12c1.6-76.81 3.47-153.59 5.15-230.39 2.957.27 5.933.27 8.89 0 2.988-.479 5.929-1.215 8.79-2.2 5.14 76.807 10.26 153.62 15.36 230.44 8.25 1.72 18.51 3.8 26.4 4.25s13.05-.6 20.3-1.73c-8.093-94.633-16.127-189.26-24.1-283.88z" fill="#305271"/><path d="m583 315.74c-6.955 2.501-14.446 3.129-21.72 1.82-8.78-3.18-7.26-13.62-7.42-21.05-5.37-6.42-11.06 4.07-13.85-8.34-3.62-16.21 9.74-23.14 27.58-21.42 5.63.54 9.94 3.72 10.83 10 4.1.76 7.67 1.8 9.44 5.79 2.53 10.72-.78 23.24-4.86 33.2z" fill="#305271"/><path d="m513.54 516.73s31.24 9 53.14 8.92 41.47-5.2 62.78-11.62c1-16.34 1.88-106.27-1.66-138.46-.85-7.71-10.17-11.58-17.51-14.11s-16.38-5.14-22.38-5.1c-6.38 7.4-20 7.73-24.14 7.73s-13.62-1.35-17.72-6.72c-6.385 1.582-12.67 3.545-18.82 5.88-6.4 2.5-5.72 35.27-8.2 41.83.44 20.53-5.49 111.65-5.49 111.65z" fill="#adc964"/><path d="m551.35 298.78-5.41-.66" stroke="#305271" stroke-linecap="round" stroke-linejoin="round" stroke-width="3"/><path d="m551.48 303.18-5.41-.66" stroke="#305271" stroke-linecap="round" stroke-linejoin="round" stroke-width="3"/><path d="m506.35 368c-2.92-9.23-9.76-38.36-8.58-43.85s25.36-22 62.81-34.87c13.8-5.5 27.71-6.86 25.93 4.91s-12.31 11.7-22.89 10.58c.26-.5-35.57 22.4-38.31 28.18-.65 3.89 7.86 13 8.3 16.33" fill="#ffbe9d"/><path d="m537.37 347.75c-7.12-1.45-34.74 6.18-36.64 9.46s13.4 37.79 16.08 43.79c9 19.54 30.15-25.75 29.24-43.64 0 .01-1.57-8.15-8.68-9.61z" fill="#adc964"/><g fill="#e9e8e8"><path d="m498.65 188.54h-268.65c-.878 0-1.72-.349-2.341-.97-.62-.62-.969-1.462-.969-2.34s.349-1.72.969-2.341c.621-.62 1.463-.969 2.341-.969h268.7c.878 0 1.72.349 2.34.969.621.621.97 1.463.97 2.341s-.349 1.72-.97 2.34c-.62.621-1.462.97-2.34.97z"/><path d="m477.24 217.41h-225.89c-.878 0-1.72-.349-2.34-.969-.621-.621-.97-1.463-.97-2.341s.349-1.72.97-2.34c.62-.621 1.462-.97 2.34-.97h225.89c.878 0 1.72.349 2.341.97.62.62.969 1.462.969 2.34s-.349 1.72-.969 2.341c-.621.62-1.463.969-2.341.969z"/><path d="m415.36 147.52h-102.12c-1.27 0-2.3 1.03-2.3 2.3v10.54c0 1.27 1.03 2.3 2.3 2.3h102.12c1.27 0 2.3-1.03 2.3-2.3v-10.54c0-1.27-1.03-2.3-2.3-2.3z"/></g></svg>