<svg fill="none" height="500" viewBox="0 0 500 500" width="500" xmlns="http://www.w3.org/2000/svg"><path d="m348.79 433 24.75 35.99 8.85.21-16.22-37.01z" fill="#263238"/><path d="m87.6201 434.83-13.04 34h6.52l22.7699-33.85z" fill="#263238"/><path d="m82.0003 311.3 1 44c.0637 2.994 1.2807 5.847 3.3972 7.966 2.1165 2.118 4.9691 3.338 7.9628 3.404l246.1897 5.48c1.549.035 3.09-.241 4.531-.81s2.754-1.42 3.862-2.503c1.107-1.084 1.987-2.377 2.588-3.806.601-1.428.91-2.962.909-4.511v-53c-.003-7.555-2.737-14.855-7.699-20.552s-11.817-9.408-19.301-10.448c-45.07-6.2-138-15.73-213.15-2.19-8.626 1.542-16.417 6.114-21.9704 12.892-5.5535 6.779-8.5037 15.317-8.3193 24.078z" fill="#adc964"/><path d="m80.9202 326.67s-20.28-9.39-24.43 0 .51 20.91 5.07 27.33 4.54 85.74 4.54 85.74l307.5798-3.29 3.64-76.27s14.75-18.17 13.83-26-13.37-19.23-27.66-7.54-18 36.12-18 36.12l-245.23 1.85s.84-34.31-19.3398-37.94z" fill="#adc964"/><g fill="#263238"><path d="m342.38 378c0 .14-54.49.26-121.69.26s-121.69-.09-121.69-.26 54.47-.26 121.69-.26 121.69.14 121.69.26z"/><path d="m99 411.6c-.0128-.08-.0128-.161 0-.24 0-.19 0-.43 0-.71 0-.627-.02-1.537-.06-2.73 0-2.41 0-5.82 0-10 0-8.46.06-20.15-.33-33-.0762-6.051-.5438-12.09-1.4-18.08-.18-.66-.36-1.32-.53-2s-.5-1.25-.76-1.86c-.53-1.21-1.07-2.37-1.66-3.46-1.0652-2.029-2.3173-3.954-3.74-5.75-1.1879-1.471-2.5288-2.812-4-4-1.1175-.89-2.32-1.667-3.59-2.32-1.1064-.51-2.2379-.964-3.39-1.36h.23l.69.19c.8826.253 1.7396.588 2.56 1 1.3062.619 2.5403 1.381 3.68 2.27 1.5023 1.18 2.8705 2.521 4.08 4 1.462 1.799 2.7479 3.735 3.84 5.78.61 1.1 1.16 2.26 1.7 3.48.27.61.52 1.24.77 1.87l.57 2c.8922 6.017 1.3766 12.087 1.45 18.17.39 12.9.26 24.59.18 33.05-.06 4.19-.11 7.6-.14 10v2.73.7c-.15.18-.15.27-.15.27z"/><path d="m78.5302 344.37c.2388-.163.5211-.25.81-.25.8039-.061 1.6038.162 2.26.63.4614.323.8386.751 1.1 1.25.2989.585.4007 1.252.29 1.9-.1089.746-.4414 1.442-.9538 1.995-.5124.554-1.1805.939-1.9162 1.105-.7412.106-1.4974-.009-2.1734-.331-.6761-.322-1.242-.837-1.6266-1.479-.3368-.561-.5068-1.206-.49-1.86.036-.688.2564-1.354.6382-1.928.3818-.573.9109-1.033 1.5318-1.332.2551-.138.5403-.21.83-.21 0 .05-.29.12-.74.39-.6289.389-1.1323.952-1.45 1.62-.2376.469-.3513.99-.3303 1.515.021.526.1761 1.037.4503 1.485.3426.548.8362.986 1.4215 1.261.5854.275 1.2377.376 1.8785.289.6269-.147 1.1969-.474 1.6395-.942.4426-.467.7383-1.054.8505-1.688.0882-.522.0281-1.059-.1734-1.548-.2016-.49-.5364-.913-.9666-1.222-.5699-.454-1.2718-.71-2-.73-.58.03-.87.13-.88.08z"/><path d="m79.92 364.11c-.5831-.433-1.0587-.994-1.39-1.64-.9129-1.504-1.4056-3.225-1.4268-4.984-.0211-1.759.4302-3.491 1.3068-5.016.3189-.654.7802-1.228 1.35-1.68.07.06-.45.69-1 1.85-.7504 1.502-1.1342 3.161-1.12 4.84.0275 1.681.4488 3.332 1.23 4.82.58 1.14 1.13 1.76 1.05 1.81z"/><path d="m76.7001 334.42c-.0544.508-.1548 1.01-.3 1.5-.4388 2.393.086 4.862 1.46 6.87.324.393.6214.807.89 1.24 0 0-.56-.28-1.19-1-.8114-.991-1.3759-2.16-1.6472-3.412-.2712-1.252-.2413-2.55.0872-3.788.1119-.521.3525-1.006.7-1.41z"/><path d="m70.7104 345.48c.12-.1 1.0501.84 2.4701 1.57s2.71 1 2.69 1.12c-1.0239.131-2.0614-.102-2.93-.66-.9561-.398-1.7443-1.115-2.2301-2.03z"/><path d="m374.86 411.6c0 .14-69.37.26-154.94.26s-154.92-.12-154.92-.26 69.36-.26 155-.26 154.86.11 154.86.26z"/><path d="m341.31 363.05c.15 0 .26 10.86.26 24.25s-.11 24.27-.26 24.27-.26-10.86-.26-24.27.12-24.25.26-24.25z"/><path d="m238.6 279.14h-.48l-1.4.05-5.37.15-19.78.46-65.24 1.31c-6.37.15-12.6.13-18.58.53-5.758.248-11.455 1.287-16.93 3.09-4.938 1.658-9.358 4.577-12.8196 8.47-1.5704 1.759-2.9142 3.707-4 5.8-.9904 1.925-1.8102 3.932-2.45 6-1.0279 3.592-1.6978 7.276-2 11-.31 3.3-.34 6.15-.36 8.49s0 4.14.07 5.37v1.4.48s0-.16 0-.48 0-.8-.08-1.4c-.06-1.22-.1401-3-.1601-5.37s.0001-5.2.2701-8.52c.2943-3.761.9643-7.483 2-11.11.6331-2.104 1.4496-4.149 2.44-6.11 1.0763-2.135 2.4205-4.125 4-5.92 3.5086-3.952 7.9906-6.916 12.9996-8.6 5.493-1.834 11.215-2.894 17-3.15 6-.4 12.24-.39 18.61-.54l65.25-1.16 19.77-.29 5.38-.06h1.4z"/><path d="m159.86 313.4s-.33.16-.84.55c-.721.553-1.26 1.309-1.55 2.17-.233.614-.305 1.277-.209 1.927.097.649.358 1.263.759 1.783.452.684 1.104 1.213 1.866 1.514.763.302 1.6.362 2.398.172.797-.19 1.517-.62 2.062-1.233s.889-1.379.984-2.193c.122-.646.078-1.313-.129-1.937-.206-.625-.568-1.187-1.051-1.633-.648-.634-1.469-1.062-2.36-1.23-.63-.11-1-.07-1-.11.32-.118.665-.149 1-.09.816.094 1.592.401 2.25.891.659.49 1.176 1.145 1.5 1.899.295.729.375 1.527.23 2.3-.129.895-.524 1.73-1.134 2.398s-1.407 1.136-2.286 1.346c-.88.209-1.803.149-2.648-.173s-1.574-.89-2.092-1.631c-.474-.624-.762-1.369-.83-2.15-.045-.681.061-1.364.31-2 .341-.908.965-1.683 1.78-2.21.292-.206.634-.331.99-.36z"/><path d="m155.65 339.31c-.38-.963-.636-1.972-.76-3-.487-2.442-.433-4.961.16-7.38.641-2.45 2.18-4.57 4.31-5.94.644-.399 1.351-.686 2.09-.85.265-.083.545-.111.82-.08-.952.305-1.865.722-2.72 1.24-1.97 1.393-3.386 3.436-4 5.77-.564 2.351-.665 4.79-.3 7.18.24 1.9.48 3.04.4 3.06z"/><path d="m159.29 298c-.531.705-1.022 1.439-1.47 2.2-1.015 1.871-1.315 4.049-.842 6.125s1.686 3.908 3.412 5.155c.735.496 1.5.947 2.29 1.35-.247-.001-.492-.052-.72-.15-.629-.222-1.228-.525-1.78-.9-1.887-1.233-3.222-3.15-3.723-5.347-.502-2.197-.132-4.504 1.033-6.433.336-.578.746-1.109 1.22-1.58.34-.35.56-.49.58-.42z"/><path d="m158.37 318c-1.828.306-3.637.713-5.42 1.22-1.726.675-3.415 1.443-5.06 2.3 2.89-2.514 6.659-3.78 10.48-3.52z"/></g><path d="m126.06 378.94c9.709 7.44 21.797 11.084 34 10.25-2.533 11.753-5.06 23.51-7.58 35.27-.67 3.13-1.3 6.62.34 9.38 2.3 3.87 7.65 4.25 12.15 4.19 5-.07 10.22-.19 14.66-2.51 6.29-3.28 9.67-10.24 12.11-16.9s4.55-13.8 9.57-18.81c5.763 6.565 13.563 11.006 22.15 12.61 2.5.46 5.34.6 7.34-1s2.57-4.42 2.06-6.9c-.665-2.444-1.774-4.746-3.27-6.79l-14.64-22.7c-2-3.07-4.14-6.31-7.49-7.77-2.63-1.15-5.61-1-8.47-.87-23.901 1.392-47.624 4.977-70.87 10.71" fill="#000" opacity=".3"/><path d="m204.28 266.4c-5.92 15.64-28 19.23-35.79 34-7.67 14.64 1.84 34-6.06 48.56-2.93 5.38-8 9.39-10.82 14.81-1.92 3.64-2.91 8-6 10.69-3.62 3.15-9.23 3.09-13.58 1.05s-7.69-5.7-10.79-9.37c-5.8-6.88-11.25-14.32-14-22.91-4.66-14.77-.38-31.48 9-43.82s23.27-20.67 37.94-25.66 30.19-6.87 45.62-8.32" fill="#000" opacity=".3"/><path d="m133.18 225.27c2.241-3.493 5.34-6.354 9-8.31 3.687-1.962 7.996-2.396 12-1.21 1.968.624 3.739 1.749 5.142 3.263 1.402 1.515 2.387 3.367 2.858 5.377.63 3.21-.23 6.79 1.43 9.61 1.9 3.24 6.49 4.26 8.11 7.66.426 1.053.603 2.19.518 3.322-.085 1.133-.43 2.23-1.008 3.208-1.166 1.946-2.65 3.684-4.39 5.14 1.048.656 1.975 1.488 2.74 2.46.38.489.632 1.066.733 1.677s.049 1.237-.153 1.823c-.652 1.158-1.727 2.018-3 2.4-5.587 2.355-11.762 2.934-17.69 1.66-1.58-.34-3.39-.77-4.69.19" fill="#263238"/><path d="m173.21 237.14-3.21 9.79 21.86 12.41-22 .71 1.64 17.83 42.35-10.4s2.54-17.27-40.64-30.34l-3-.72c-.541-.127-1.043-.384-1.463-.748-.419-.364-.744-.824-.947-1.342-.343-.842-.984-1.529-1.8-1.93l-3.61-1.88v2.86l2 2.33-.32 5.53c-.084 1.184.256 2.36.96 3.316.704.957 1.725 1.632 2.88 1.904l2 .47" fill="#b78876"/><path d="m125.32 272.54c-.87 0-8.94 2-13.56 7.84s-11.3 27.94-11.3 27.94l17 2.94 7.34 18.43s43.45-5.69 41.14-8c-2.232-2.055-4.569-3.994-7-5.81l10-33.31 12-6.48-4.05-16.64-24.17 3.27z" fill="#fafafa"/><path d="m166.86 290.27c0 .14-13.55.26-30.25.26s-30.26-.12-30.26-.26 13.55-.26 30.26-.26 30.25.12 30.25.26z" fill="#adc964"/><path d="m164.15 300.06c0 .14-13.55.26-30.25.26s-30.26-.12-30.26-.26 13.54-.26 30.26-.26 30.25.12 30.25.26z" fill="#adc964"/><path d="m164.15 310.63c0 .15-10.26.27-22.92.27s-22.91-.12-22.91-.27 10.26-.26 22.91-.26 22.92.12 22.92.26z" fill="#adc964"/><path d="m167.66 320.82c0 .14-10.26.26-22.91.26s-22.91-.12-22.91-.26 10.25-.26 22.91-.26 22.91.11 22.91.26z" fill="#adc964"/><path d="m178.51 277.1c0 .15-6.78.26-15.13.26s-15.14-.11-15.14-.26 6.77-.26 15.14-.26 15.13.16 15.13.26z" fill="#adc964"/><path d="m179.61 266.72c0 .15-6.75.42-15.07.61s-15.09.24-15.09.1 6.74-.42 15.07-.62 15.09-.23 15.09-.09z" fill="#adc964"/><path d="m121 295.35c-.372 2.758-.916 5.49-1.63 8.18-.544 2.731-1.255 5.426-2.13 8.07.372-2.757.913-5.489 1.62-8.18.539-2.733 1.254-5.429 2.14-8.07z" fill="#263238"/><path d="m168.3 420.21-12.66 39.93 15.26 1.54 14.34-34.7z" fill="#b78876"/><path d="m179.47 446.14-7.27 18s15.88 13.45 14.86 16.91l-35.46-12.81 10.17-28.56z" fill="#455a64"/><path d="m161.79 458.66c-.378-.02-.751.101-1.046.339-.296.238-.493.577-.554.951-.034.377.077.753.311 1.051.235.298.574.494.949.549.401.02.795-.109 1.107-.362s.52-.612.583-1.008c0-.76-.75-1.63-1.5-1.52" fill="#e0e0e0"/><path d="m151.6 468.24 1.14-2.84 33.58 13.38s1.33 1.25.74 2.3z" fill="#e0e0e0"/><path d="m172.84 464.2c-.07.17-1-.06-2 .18s-1.77.82-1.9.69.48-1 1.76-1.31 2.23.29 2.14.44z" fill="#263238"/><path d="m176 467.08c0 .19-.88.21-1.73.73s-1.27 1.19-1.47 1.19.07-1.09 1.14-1.71 2.12-.37 2.06-.21z" fill="#263238"/><path d="m176.5 472.3c-.17 0-.1-1 .69-1.76s1.74-.87 1.76-.7-.67.5-1.3 1.15-.97 1.36-1.15 1.31z" fill="#263238"/><path d="m174 459.91c-.13.13-.84-.4-1.84-.69s-1.88-.25-1.92-.43.93-.54 2.1-.18 1.83 1.19 1.66 1.3z" fill="#263238"/><path d="m175.44 456.24c-.637-.055-1.248-.279-1.77-.65-.601-.344-1.156-.764-1.65-1.25-.301-.279-.579-.584-.83-.91-.158-.182-.286-.388-.38-.61-.069-.163-.083-.346-.038-.518.046-.172.147-.324.288-.432.13-.089.28-.147.436-.168s.316-.004.464.048c.227.083.442.194.64.33.357.229.692.49 1 .78.502.488.923 1.052 1.25 1.67.358.538.54 1.174.52 1.82-.1 0-.3-.66-.91-1.59-.354-.54-.777-1.031-1.26-1.46-.28-.259-.585-.49-.91-.69-.34-.23-.66-.35-.81-.22s-.07.08 0 .21c.079.161.176.312.29.45.232.306.479.6.74.88.456.469.951.897 1.48 1.28.507.309.992.653 1.45 1.03z" fill="#263238"/><path d="m175.12 456.41c-.152-.631-.096-1.294.16-1.89.329-1.071.949-2.03 1.79-2.77.18-.198.408-.348.661-.433.254-.086.526-.106.789-.057.157.063.294.168.395.304.1.136.161.298.175.466.018.242-.003.485-.06.72-.081.417-.226.818-.43 1.19-.335.631-.824 1.167-1.42 1.56-1 .67-1.83.62-1.82.55.535-.271 1.053-.575 1.55-.91.493-.399.892-.9 1.17-1.47.156-.317.27-.653.34-1 .08-.39.05-.75-.11-.76s-.58.11-.83.36c-.288.242-.552.509-.79.8-.406.503-.742 1.058-1 1.65-.41.98-.46 1.7-.57 1.69z" fill="#263238"/><path d="m216.35 382.62 18.9 32.85 15.46-9.92-18.98-33.35z" fill="#b78876"/><path d="m245.37 396.16 9.77 16.84s20.36-4.28 22.47-1.35l-31.92 20.1-16.29-25.59z" fill="#455a64"/><path d="m244.39 417.81c-.253.281-.394.646-.394 1.025s.141.744.394 1.025c.273.25.63.389 1 .389s.727-.139 1-.389c.263-.306.403-.697.393-1.1-.009-.402-.167-.787-.443-1.08-.318-.238-.715-.345-1.11-.298-.394.046-.756.242-1.01.548" fill="#e0e0e0"/><path d="m245.69 431.73-1.54-2.64 31.18-18.28s1.81-.28 2.28.82z" fill="#e0e0e0"/><path d="m255.55 412.49c.09.16-.64.72-1.09 1.7s-.45 1.9-.63 1.93-.52-1 0-2.2 1.66-1.6 1.72-1.43z" fill="#263238"/><path d="m259.77 411.76c.13.13-.38.82-.49 1.82s.17 1.78 0 1.87-.81-.72-.65-2 1.04-1.83 1.14-1.69z" fill="#263238"/><path d="m264.2 414.57c-.13.13-.83-.51-1-1.62s.38-1.9.53-1.82 0 .83.11 1.74.5 1.59.36 1.7z" fill="#263238"/><path d="m252.9 408.9c0 .19-.83.42-1.67 1s-1.35 1.32-1.52 1.24.15-1.06 1.15-1.77 2.04-.64 2.04-.47z" fill="#263238"/><path d="m250.87 405.55c0 .06-.51.55-1.6 1-.644.254-1.315.435-2 .54-.408.051-.819.082-1.23.09-.243.009-.485-.018-.72-.08-.171-.046-.321-.148-.428-.289s-.164-.314-.162-.491c.008-.159.054-.313.134-.451.08-.137.192-.253.326-.339.203-.124.422-.221.65-.29 1.057-.363 2.19-.449 3.29-.25 1.18.22 1.8.65 1.76.71s-.7-.17-1.81-.26c-.648-.048-1.3-.014-1.94.1-.371.066-.735.163-1.09.29-.4.13-.69.31-.68.51s0 .1.15.16c.174.04.352.057.53.05 1.036.014 2.068-.131 3.06-.43.572-.233 1.16-.423 1.76-.57z" fill="#263238"/><path d="m250.81 405.9c0 .06-.7-.31-1.4-1.28-.401-.574-.699-1.214-.88-1.89-.108-.399-.178-.808-.21-1.22-.045-.266-.021-.539.07-.793s.246-.481.45-.657c.141-.089.304-.136.47-.136s.329.047.47.136c.202.134.383.295.54.48.275.327.504.69.68 1.08.284.654.405 1.368.35 2.08-.1 1.22-.63 1.82-.68 1.77.111-.589.187-1.183.23-1.78-.013-.632-.163-1.253-.44-1.82-.158-.331-.364-.638-.61-.91-.26-.3-.56-.5-.67-.38-.1.119-.172.259-.212.409-.04.151-.046.308-.018.461.018.377.068.752.15 1.12.147.627.383 1.23.7 1.79.54.98 1.08 1.46 1.01 1.54z" fill="#263238"/><path d="m160.09 378 37.12-25.24 23.41 45.57 21.28-11.53s-24.51-59.8-33.31-61.7c-4.93-1.08-61.47 9.71-61.47 9.71l-6.32-3.17-16-1.95-1 2.59c-2.793 7.072-4.077 14.65-3.771 22.248.307 7.598 2.197 15.048 5.551 21.872l.78 1.59z" fill="#263238"/><path d="m147.06 346.42c.28 1.25 31 30 31 30l-17.7 59.49 26.42 5.05 26.53-71.66-48.49-47.57-22.19 9.27z" fill="#263238"/><path d="m197.21 352.75c.08.12-8.17 5.86-18.41 12.83s-18.62 12.52-18.71 12.42 8.16-5.87 18.41-12.84 18.62-12.53 18.71-12.41z" fill="#455a64"/><path d="m216.26 389.83c-.342-.428-.643-.886-.9-1.37-.55-.9-1.31-2.23-2.24-3.87-1.85-3.29-4.31-7.89-6.91-13s-4.9-9.82-6.51-13.23c-.81-1.71-1.45-3.1-1.88-4.06-.252-.486-.457-.995-.61-1.52.302.456.57.934.8 1.43l2 4c1.74 3.45 4.07 8.06 6.64 13.17s5 9.75 6.77 13.08c.85 1.61 1.56 2.94 2.1 3.95.283.453.531.928.74 1.42z" fill="#455a64"/><path d="m183.57 365.78c-.789 2.193-1.738 4.326-2.84 6.38-.951 2.125-2.057 4.177-3.31 6.14 1.737-4.32 3.793-8.505 6.15-12.52z" fill="#455a64"/><path d="m100.46 308.32-5.9997 22.16c-.7745 2.866-.4164 5.92 1 8.53 1.2085 2.243 3.1209 4.027 5.4427 5.077 2.322 1.05 4.925 1.307 7.407.733l47.55-11.71-5-9.88-37.46 3.25 4-15.22z" fill="#b78876"/><path d="m121.55 341.95.62-3.22 25.77-4.63 7.49-39.73 47.86-5.7-8.04 42.41z" fill="#455a64"/><path d="m176.92 315.77c-.55-.024-1.08-.216-1.518-.55-.438-.333-.763-.793-.933-1.317-.169-.524-.174-1.087-.014-1.614s.477-.993.909-1.334c.432-.342.958-.543 1.508-.577.549-.034 1.096.101 1.567.386.471.286.843.709 1.067 1.212.223.503.288 1.063.184 1.604-.08.656-.416 1.254-.934 1.664-.519.41-1.179.599-1.836.526z" fill="#ebebeb"/><path d="m128.55 228 .09 2.87 1.08 43c.13 5 4.52 8.86 9.86 8.68 5.4-.17 9.74-4.4 9.7-9.45-.05-5.29 0-10.87 0-10.87s6.81-1.21 8.12-10.13c.65-4.43.34-11.69-.1-17.62-.094-1.265-.442-2.497-1.025-3.624-.583-1.126-1.388-2.123-2.366-2.93s-2.11-1.408-3.326-1.767c-1.217-.358-2.493-.467-3.753-.319z" fill="#b78876"/><path d="m153.85 239.47c.006.298-.105.587-.308.805-.203.219-.484.349-.782.365-.143.012-.287-.004-.424-.048-.137-.043-.264-.114-.374-.207-.109-.093-.2-.206-.265-.334-.066-.128-.105-.268-.117-.411-.005-.297.104-.584.305-.802s.479-.35.775-.368c.291-.025.579.066.802.254.223.187.363.456.388.746z" fill="#263238"/><path d="m155.77 238.31c-.14.15-1-.48-2.24-.47s-2.12.65-2.26.5.08-.34.47-.63c.527-.373 1.155-.576 1.8-.58.64-.006 1.265.186 1.79.55.38.32.51.56.44.63z" fill="#263238"/><path d="m141.73 239.91c.009.299-.101.589-.305.808s-.486.349-.785.362c-.29.025-.578-.066-.801-.254-.224-.187-.363-.456-.389-.746-.005-.297.106-.585.309-.802.204-.216.484-.345.781-.358.144-.014.288.001.426.043.137.043.265.112.376.204.11.092.202.205.268.333.067.127.108.267.12.41z" fill="#263238"/><path d="m143.7 238.68c-.14.15-1-.48-2.24-.47s-2.12.65-2.26.5.07-.34.46-.63c.53-.373 1.162-.576 1.81-.58.636-.006 1.258.186 1.78.55.38.29.52.56.45.63z" fill="#263238"/><path d="m148.26 247.73c.649-.209 1.321-.337 2-.38.32 0 .61-.1.66-.32.024-.322-.053-.643-.22-.92l-.95-2.38c-.885-2.012-1.608-4.092-2.16-6.22 1.051 1.922 1.937 3.929 2.65 6l.92 2.39c.199.377.262.811.18 1.23-.045.111-.114.211-.202.292-.088.082-.193.142-.308.178-.176.048-.357.075-.54.08-.671.104-1.354.121-2.03.05z" fill="#263238"/><path d="m149.28 262.26c-4.201.134-8.356-.905-12-3 0 0 3 6.08 11.86 5.14z" fill="#aa6550"/><path d="m144.19 236.65c-.13.33-1.35.12-2.8.22s-2.63.45-2.81.14c-.08-.15.14-.45.62-.75.642-.377 1.366-.593 2.11-.63.741-.056 1.484.064 2.17.35.52.24.77.52.71.67z" fill="#263238"/><path d="m155.26 234c-.22.28-1.07 0-2.08 0s-1.88.21-2.08-.08 0-.42.41-.69c.503-.325 1.092-.492 1.691-.48.599.013 1.18.204 1.669.55.36.32.48.61.39.7z" fill="#263238"/><path d="m148.13 252.18c-.36.058-.729.02-1.07-.11l-1-.28c-.28-.09-.59-.22-.94-.35-.351-.096-.669-.286-.92-.55-.21-.27-.17-.75.31-1.18.334-.243.72-.402 1.127-.466.408-.063.824-.028 1.216.102.391.13.745.351 1.034.646.288.295.502.654.623 1.048.21.63-.05 1.05-.38 1.14z" fill="#aa6550"/><path d="m148.3 252.07c-.12.09-.72-1.14-2.16-1.51-.88-.127-1.778-.027-2.61.29 0 0 .16-.32.65-.57.648-.323 1.39-.401 2.09-.22.703.178 1.318.604 1.73 1.2.31.45.36.79.3.81z" fill="#263238"/><path d="m138.85 222.22c1.374 2.166 1.963 4.737 1.67 7.285-.293 2.547-1.45 4.918-3.28 6.715-2.13 2-5.3 3.53-5.51 6.43-.24 3.21 3.48 5.61 3.48 8.83s-3.81 5.42-4.56 8.65c-.6 2.6 1 5.2 2.76 7.17s4 3.71 5 6.15c.531 1.375.778 2.843.727 4.316-.052 1.473-.401 2.92-1.027 4.254-1.265 2.652-2.954 5.08-5 7.19-2.659-.952-5.427-1.567-8.24-1.83.17-1.06.35-2.13.53-3.19-.026.62-.249 1.215-.635 1.7s-.917.836-1.515 1c-1.205.307-2.466.324-3.68.05-3.748-.592-7.431-1.54-11-2.83 1.596-1.438 2.947-3.127 4-5 .519-.947.8-2.006.82-3.086.019-1.08-.225-2.149-.71-3.114-.88-1.5-2.5-2.46-3.31-4-1.21-2.3-.21-5.22 1.51-7.17s4.06-3.22 6.11-4.82 3.93-3.76 4.09-6.36c.22-3.36-2.51-6.43-2.17-9.78.38-3.82 4.42-6.16 6-9.66 1.15-2.53 1-5.65 2.76-7.8.691-.767 1.549-1.365 2.508-1.747.959-.381 1.993-.536 3.022-.453 2.056.179 4.036.866 5.76 2" fill="#263238"/><path d="m150 263.22c-1.6.88-1.51 3.33-.53 4.88s2.55 2.66 3.52 4.22c.82 1.424 1.106 3.094.808 4.71-.299 1.616-1.163 3.073-2.438 4.11l3.84 1.45.84-.47 2.36-1.34-1.11 2.73h2.46c1.307.027 2.595-.313 3.719-.98 1.124-.668 2.038-1.637 2.64-2.797.601-1.16.866-2.466.764-3.769s-.567-2.552-1.343-3.604c-1-1.4-2.58-2.51-2.93-4.2-.41-2.05 1.14-3.9 1.89-5.84.597-1.639.659-3.425.178-5.101-.482-1.676-1.482-3.157-2.858-4.229" fill="#263238"/><path d="m174.323 211.483c-.225-.112-.415-.285-.547-.498-.133-.214-.203-.461-.203-.712v-6.66c.001-.206.049-.409.141-.593.092-.183.225-.344.389-.467.164-.127.355-.214.559-.252.203-.038.413-.027.611.032.549.14 1.121.168 1.681.082s1.098-.284 1.579-.582c.444-.254.831-.596 1.138-1.005.306-.41.525-.878.642-1.375.09-.506.075-1.025-.042-1.525-.116-.5-.334-.971-.638-1.385-.316-.47-.721-.872-1.193-1.184-.472-.313-1.001-.529-1.557-.636-1.128-.113-2.261.161-3.214.777-.952.616-1.666 1.537-2.026 2.613-.053.167-.138.321-.251.455s-.252.244-.407.324c-.156.08-.325.129-.5.144-.174.015-.35-.005-.517-.058-.166-.053-.321-.139-.455-.252s-.244-.251-.324-.407c-.08-.155-.129-.325-.144-.499-.015-.175.005-.35.058-.517.557-1.682 1.677-3.119 3.171-4.07s3.27-1.357 5.029-1.15c.915.157 1.789.498 2.568 1.004.779.505 1.446 1.164 1.962 1.936.512.716.873 1.528 1.062 2.387.189.86.202 1.748.038 2.613-.192.855-.557 1.662-1.073 2.37-.516.709-1.172 1.304-1.927 1.75-1.107.665-2.377 1.012-3.67 1v5.13c0 .355-.141.696-.392.947-.251.252-.592.393-.948.393-.207.001-.412-.043-.6-.13z" fill="#305271"/><path d="m176.163 214.283c.004.215-.056.426-.172.607-.116.182-.283.324-.48.411-.197.086-.415.112-.627.075-.212-.038-.408-.137-.563-.286-.156-.148-.264-.339-.311-.549s-.031-.429.046-.63c.078-.201.213-.374.388-.499.176-.124.384-.193.599-.199.144-.004.288.02.422.072.135.052.257.13.362.229.104.1.187.219.245.351s.089.274.091.418z" fill="#305271"/><path d="m409 111h-179.13v191.169h179.13z" fill="#fff"/><path d="m408.731 124.498h-179.574v112.1h179.574z" fill="#f5f5f5"/><path d="m295.683 250.571c0-1.034-.908-1.745-2.476-1.745-.588-.031-1.175.07-1.713.295s-1.012.567-1.382.997l-1.251-.84c.537-.616 1.223-1.102 2.001-1.419.777-.317 1.623-.455 2.469-.404 2.489 0 4.126 1.086 4.126 2.896 0 2.715-3.053 2.883-3.053 5.016h-1.733c-.028-2.559 3.012-2.921 3.012-4.796zm-3.287 7.434c.03-.26.162-.499.368-.673.207-.174.475-.27.753-.27.277 0 .545.096.752.27s.338.413.369.673c-.031.259-.162.499-.369.673s-.475.27-.752.27c-.278 0-.546-.096-.753-.27-.206-.174-.338-.414-.368-.673z" fill="#263238"/><path d="m348.12 250.571c0-1.034-.907-1.745-2.475-1.745-.588-.031-1.176.07-1.714.295s-1.011.567-1.381.997l-1.252-.84c.538-.616 1.224-1.102 2.001-1.419s1.624-.455 2.469-.404c2.49 0 4.127 1.086 4.127 2.896 0 2.715-3.054 2.883-3.054 5.016h-1.733c-.027-2.559 3.012-2.921 3.012-4.796zm-3.287 7.434c.031-.26.162-.499.369-.673s.475-.27.752-.27c.278 0 .546.096.752.27.207.174.338.413.369.673-.031.259-.162.499-.369.673-.206.174-.474.27-.752.27-.277 0-.545-.096-.752-.27s-.338-.414-.369-.673z" fill="#263238"/><path d="m330.246 250.571c0-1.034-.817-1.745-2.228-1.745-.53-.031-1.058.07-1.542.295-.485.225-.911.567-1.244.997l-1.126-.84c.484-.616 1.101-1.102 1.801-1.419.699-.317 1.461-.455 2.222-.404 2.241 0 3.714 1.086 3.714 2.896 0 2.715-2.748 2.883-2.748 5.016h-1.56c-.025-2.559 2.711-2.921 2.711-4.796zm-2.959 7.434c.028-.26.146-.499.332-.673s.427-.27.677-.27.491.096.677.27.304.413.332.673c-.028.259-.146.499-.332.673s-.427.27-.677.27-.491-.096-.677-.27-.304-.414-.332-.673z" fill="#263238"/><path d="m312.875 250.571c0-1.034-.907-1.745-2.475-1.745-.588-.031-1.176.07-1.714.295s-1.011.567-1.381.997l-1.252-.84c.538-.616 1.224-1.102 2.001-1.419s1.624-.455 2.469-.404c2.49 0 4.127 1.086 4.127 2.896 0 2.715-3.054 2.883-3.054 5.016h-1.733c-.027-2.559 3.012-2.921 3.012-4.796zm-3.287 7.434c.031-.26.162-.499.369-.673s.474-.27.752-.27.545.096.752.27.338.413.369.673c-.031.259-.162.499-.369.673s-.474.27-.752.27-.545-.096-.752-.27-.338-.414-.369-.673z" fill="#263238"/><path d="m390.261 273.818c0 .124-30.765.216-68.696.216-37.93 0-68.695-.092-68.695-.216 0-.125 30.756-.216 68.695-.216s68.696.099 68.696.216z" fill="#000"/><path d="m360.93 280.841c0 .116-17.626.216-39.374.216-21.747 0-39.382-.1-39.382-.216s17.635-.216 39.382-.216c21.748 0 39.374.066 39.374.216z" fill="#000"/><path d="m348.513 191.831c2.876-2.564 4.938-5.851 5.951-9.484 1.012-3.632.933-7.464-.227-11.056-1.16-3.593-3.356-6.8-6.335-9.254-2.978-2.455-6.62-4.058-10.508-4.626s-7.865-.078-11.475 1.414-6.707 3.926-8.937 7.023-3.503 6.731-3.672 10.487.772 7.482 2.716 10.75l-4.261 3.799 1.026 6.757-6.617-1.729-5.331 4.754 1.061 6.716-6.609-1.77-4.582 4.081.626 4.156-4.035-1.081-2.661 2.377-.4 6.259 9.765 2.352 31.696-28.259c3.758 1.596 7.926 2.1 11.982 1.449 4.056-.652 7.821-2.431 10.827-5.115zm-3.131-24.611c.812.831 1.347 1.873 1.539 2.994s.031 2.272-.462 3.306c-.492 1.034-1.294 1.905-2.305 2.503-1.011.599-2.184.897-3.372.857-1.188-.039-2.337-.415-3.302-1.079s-1.702-1.586-2.118-2.651c-.416-1.064-.492-2.222-.219-3.328s.882-2.11 1.752-2.884c1.165-1.038 2.714-1.591 4.305-1.538s3.096.708 4.182 1.82z" fill="#263238"/><path d="m345.383 167.22s-.391-.349-1.191-.831c-1.138-.649-2.466-.927-3.783-.789-1.068.11-2.082.502-2.93 1.132-.847.63-1.495 1.473-1.869 2.435-.375.962-.462 2.005-.251 3.011.21 1.007.71 1.938 1.443 2.688.732.75 1.669 1.291 2.705 1.561s2.13.26 3.16-.031 1.955-.85 2.671-1.614c.716-.765 1.195-1.705 1.384-2.716.242-1.245.043-2.532-.565-3.657-.435-.831-.818-1.164-.774-1.197.043-.033.113.075.287.249.255.252.48.531.669.832.707 1.146.972 2.493.748 3.806-.13.782-.422 1.53-.86 2.202-.438.671-1.013 1.251-1.69 1.706s-1.443.776-2.252.942c-.81.167-1.646.177-2.459.029-1.31-.229-2.508-.856-3.416-1.787s-1.479-2.117-1.627-3.383c-.098-.785-.029-1.581.201-2.34s.617-1.467 1.138-2.081c.522-.614 1.167-1.121 1.897-1.493.73-.371 1.531-.598 2.355-.668 1.39-.123 2.781.224 3.931.98.318.196.61.427.869.69.209.216.261.316.209.324z" fill="#263238"/><path d="m348.513 191.831s-.095.1-.304.275l-.922.831c-1.249.972-2.608 1.809-4.052 2.493-2.747 1.258-5.748 1.931-8.794 1.973-3.046.041-6.065-.549-8.849-1.732h.174l-31.644 28.31-.087.091h-.13l-9.766-2.344-.2-.041v-.2c.122-1.953.253-4.089.392-6.258v-.2l.069-.066 2.722-2.427.096-.092h.139l4.035 1.081-.322.266c-.2-1.289-.409-2.702-.626-4.156v-.125l.095-.083 4.583-4.089.104-.1h.14l6.608 1.77-.322.275c-.321-2.145-.669-4.439-1.017-6.758v-.133l.104-.083 1.409-1.263 3.922-3.491.104-.1h.139l6.618 1.771-.331.274c-.342-2.278-.681-4.53-1.017-6.758v-.124l.096-.092 4.26-3.798-.043.299c-1.649-2.8-2.581-5.933-2.722-9.143-.081-1.551.036-3.105.348-4.629.285-1.499.752-2.961 1.391-4.356 1.613-3.528 4.248-6.542 7.593-8.687 3.346-2.145 7.263-3.331 11.291-3.418 4.027-.087 7.997.928 11.441 2.925s6.218 4.894 7.997 8.349c1.668 3.26 2.381 6.89 2.061 10.506-.22 2.695-1.02 5.318-2.348 7.705-.13.249-.261.482-.391.715l-.426.632c-.287.407-.522.831-.8 1.138-.565.649-1 1.23-1.426 1.663l-1.044 1.105-.339.299s.096-.116.304-.332l.94-.956c.408-.416.869-1.006 1.382-1.662.261-.341.487-.74.765-1.139.14-.208.279-.416.418-.64l.382-.707c1.285-2.362 2.059-4.947 2.276-7.601.218-2.654-.126-5.323-1.011-7.848-.884-2.524-2.291-4.853-4.136-6.847-1.846-1.994-4.092-3.612-6.606-4.759s-5.243-1.798-8.026-1.915c-2.782-.117-5.561.302-8.171 1.232-2.609.931-4.996 2.354-7.018 4.185s-3.638 4.033-4.751 6.473c-.62 1.364-1.075 2.792-1.357 4.255-.297 1.49-.408 3.008-.33 4.522.148 3.124 1.063 6.17 2.67 8.894l.095.166-.148.133-4.252 3.798.078-.216c.337 2.217.676 4.472 1.018 6.766l.061.374-.392-.1-6.608-1.77.252-.059-3.922 3.491-1.4 1.239.078-.225c.348 2.319.696 4.622 1.018 6.758l.061.382-.392-.1-6.608-1.778.243-.058c-1.574 1.413-3.139 2.801-4.582 4.089l.086-.216c.209 1.421.418 2.834.618 4.156l.052.365-.374-.099-4.026-1.081.235-.058-2.67 2.377.079-.158c-.14 2.169-.279 4.306-.401 6.259l-.182-.241 9.765 2.352-.217.058 31.739-28.21.078-.066h.096c2.745 1.181 5.724 1.781 8.735 1.761 3.01-.02 5.98-.66 8.708-1.878 1.439-.655 2.803-1.452 4.07-2.377l.948-.756z" fill="#263238"/><path d="m347.809 189.562c2.875-2.563 4.936-5.848 5.948-9.478 1.013-3.631.935-7.461-.224-11.051-1.159-3.591-3.353-6.796-6.33-9.251-2.976-2.454-6.616-4.057-10.502-4.626-3.885-.569-7.86-.08-11.469 1.41s-6.705 3.922-8.935 7.016-3.504 6.726-3.675 10.48.768 7.478 2.709 10.746l-4.253 3.79 1.018 6.766-6.609-1.779-5.322 4.763 1.018 6.757-6.609-1.77-4.583 4.089.618 4.156-4.026-1.072-2.67 2.377-.4 6.258 9.765 2.344 31.696-28.259c3.761 1.605 7.934 2.114 11.996 1.462s7.833-2.436 10.839-5.128zm-3.096-24.611c.812.831 1.347 1.873 1.539 2.994.191 1.121.031 2.272-.462 3.306-.492 1.034-1.295 1.905-2.305 2.503-1.011.599-2.184.897-3.373.857-1.188-.039-2.337-.415-3.301-1.079-.965-.664-1.702-1.586-2.118-2.651-.416-1.064-.492-2.222-.219-3.328.272-1.106.882-2.11 1.752-2.884.577-.515 1.253-.916 1.992-1.18.739-.265 1.525-.387 2.313-.361s1.563.201 2.281.514c.718.312 1.364.758 1.901 1.309z" fill="#305271"/><path d="m344.713 164.951s-.391-.349-1.191-.831c-1.126-.671-2.454-.964-3.774-.831-1.065.112-2.076.504-2.921 1.134-.844.63-1.489 1.472-1.862 2.432-.372.96-.458 2-.248 3.004.211 1.004.71 1.932 1.44 2.681.731.749 1.666 1.288 2.699 1.558s2.125.26 3.152-.029c1.028-.289 1.951-.845 2.667-1.607s1.196-1.699 1.386-2.707c.24-1.246.038-2.533-.574-3.657-.435-.831-.809-1.164-.774-1.197s.113.075.296.25c.252.252.474.531.661.831.709 1.148.974 2.499.747 3.815-.131.78-.424 1.527-.862 2.197-.437.67-1.011 1.25-1.687 1.704-.676.455-1.44.776-2.248.944-.808.167-1.642.179-2.455.034-1.309-.217-2.511-.832-3.427-1.752-.916-.921-1.498-2.099-1.66-3.36-.095-.785-.025-1.58.206-2.338.231-.759.619-1.465 1.14-2.079.521-.613 1.165-1.121 1.894-1.493s1.529-.6 2.352-.673c1.39-.121 2.782.229 3.93.989.32.193.612.425.87.69.182.183.26.283.243.291z" fill="#263238"/><path d="m347.808 189.562s-.095.1-.295.274l-.922.782c-1.251.97-2.61 1.806-4.052 2.493-2.749 1.258-5.751 1.931-8.799 1.972-3.047.042-6.068-.549-8.853-1.731h.174l-31.635 28.31-.096.083h-.122l-9.774-2.344-.191-.05v-.191c.122-1.953.261-4.089.391-6.259v-.099l.07-.059 2.67-2.385.104-.092h.139l4.026 1.073-.322.274c-.191-1.288-.408-2.701-.626-4.156v-.125l.105-.091 4.574-4.081.104-.1.148.042 6.608 1.77-.33.274-1.017-6.74v-.133l.095-.092 1.418-1.255 3.913-3.491.104-.099.148.041 6.609 1.771-.331.274c-.342-2.278-.681-4.53-1.017-6.758v-.133l.104-.083 4.261-3.798-.052.299c-1.649-2.8-2.582-5.933-2.722-9.143-.077-1.551.04-3.105.348-4.629.286-1.499.753-2.96 1.391-4.356 1.979-4.396 5.53-7.977 10.017-10.1 4.488-2.123 9.62-2.65 14.477-1.488 4.857 1.163 9.123 3.94 12.034 7.834s4.278 8.652 3.855 13.421c-.222 2.695-1.021 5.317-2.348 7.705l-.391.715-.426.631c-.287.407-.522.831-.792 1.139-.565.648-1 1.23-1.426 1.662l-1.008.923c-.218.208-.34.307-.34.307s.105-.124.313-.34l.931-.948c.409-.416.869-1.006 1.382-1.662.261-.333.496-.732.774-1.139l.418-.632.374-.714c1.285-2.374 2.051-4.973 2.252-7.639.369-4.668-1.001-9.31-3.867-13.105-2.867-3.796-7.046-6.499-11.798-7.633-4.752-1.133-9.77-.624-14.166 1.439s-7.888 5.546-9.856 9.832c-.617 1.365-1.07 2.793-1.348 4.256-.302 1.488-.413 3.007-.33 4.521.145 3.123 1.057 6.169 2.661 8.894l.104.166-.148.133-4.261 3.798.078-.216c.342 2.217.682 4.469 1.018 6.758l.061.382-.383-.108-6.635-1.779.244-.058-3.913 3.499-1.418 1.255.079-.216c.356 2.319.695 4.613 1.017 6.758l.061.382-.383-.108-6.617-1.77.252-.059-4.583 4.081.079-.207c.208 1.421.426 2.826.617 4.114l.052.374-.374-.1-4.026-1.08.235-.058-2.661 2.377.078-.167c-.139 2.17-.278 4.314-.408 6.259l-.183-.241 9.765 2.361-.217.058 31.739-28.21.078-.067.096.042c2.747 1.175 5.726 1.773 8.735 1.752 3.009-.02 5.979-.657 8.708-1.868 1.441-.657 2.808-1.454 4.079-2.378l.939-.756z" fill="#263238"/><path d="m345.887 187.999c1.033-1.056 1.975-2.19 2.817-3.391.954-1.423 1.678-2.975 2.148-4.605.643-2.159.847-4.416.6-6.649-.285-2.698-1.23-5.294-2.756-7.58-1.759-2.617-4.214-4.74-7.113-6.151-1.553-.773-3.223-1.311-4.948-1.596-.888-.158-1.785-.258-2.687-.299-.921-.013-1.842.031-2.757.133-3.841.421-7.441 2.009-10.269 4.53-2.828 2.52-4.736 5.842-5.444 9.475-.17.865-.28 1.74-.33 2.619-.018.863.026 1.727.13 2.584.176 1.666.622 3.295 1.322 4.83 1.27 2.864 3.317 5.352 5.931 7.206 2.274 1.619 4.917 2.701 7.713 3.158 2.304.391 4.666.354 6.956-.108 1.734-.34 3.404-.925 4.957-1.737 1.311-.716 2.558-1.533 3.73-2.444 0 0-.061.075-.209.2l-.652.565c-.349.306-.724.584-1.122.831-.522.378-1.074.717-1.652 1.014-1.556.852-3.239 1.472-4.991 1.837-4.228.903-8.654.362-12.509-1.528s-6.896-5.011-8.595-8.82c-.726-1.584-1.189-3.267-1.374-4.987-.249-1.756-.194-3.539.165-5.278.722-3.739 2.682-7.157 5.591-9.751 2.909-2.593 6.613-4.224 10.565-4.653 1.862-.229 3.751-.167 5.592.183 1.771.304 3.484.865 5.078 1.662 2.969 1.456 5.477 3.646 7.261 6.342 1.409 2.141 2.325 4.543 2.688 7.048.362 2.505.164 5.055-.584 7.481-.501 1.649-1.267 3.213-2.269 4.638-.345.528-.735 1.029-1.166 1.496-.289.362-.609.701-.956 1.014l-.635.582c-.139.091-.217.158-.226.149z" fill="#263238"/><path d="m345.044 173.795c-.044 0 .434-.433 1.017-1.322.819-1.269 1.169-2.765.991-4.247-.12-1.086-.525-2.125-1.177-3.021-.652-.897-1.53-1.621-2.553-2.107-1.195-.585-2.546-.814-3.878-.657-1.047.121-2.049.472-2.93 1.025-.88.554-1.613 1.296-2.143 2.167-.529.871-.84 1.848-.907 2.853-.068 1.005.11 2.011.519 2.94.478 1.068 1.239 1.999 2.208 2.701.854.608 1.841 1.02 2.887 1.205 1.536.271 3.123.04 4.505-.656.974-.491 1.417-.923 1.461-.881.043.041-.096.124-.313.316-.317.287-.671.536-1.053.739-1.19.659-2.556.973-3.93.904s-2.697-.519-3.809-1.294c-1.112-.769-1.972-1.825-2.48-3.043-.508-1.219-.643-2.55-.389-3.839.28-1.461 1.046-2.797 2.183-3.809s2.585-1.647 4.13-1.81c1.433-.166 2.884.086 4.165.723 1.155.576 2.128 1.437 2.817 2.493.727 1.116 1.101 2.408 1.078 3.722-.023 1.313-.443 2.593-1.208 3.684-.249.348-.541.667-.87.948-.191.191-.313.282-.321.266z" fill="#263238"/><path d="m290.705 220.34c-.096-.1 7.034-6.649 15.939-14.554 8.904-7.904 16.2-14.287 16.295-14.188.096.1-7.034 6.65-15.939 14.554-8.904 7.905-16.2 14.288-16.295 14.188z" fill="#263238"/><path d="m294.635 180.677.296-.615.382.565c.313.452.753.809 1.27 1.031l.652.274-.591.374c-.477.297-.854.718-1.087 1.214l-.287.615-.392-.565c-.311-.453-.751-.811-1.269-1.031l-.644-.274.592-.374c.476-.295.851-.717 1.078-1.214z" fill="#adc964"/><path d="m275.235 176.056.165-.358.226.324c.179.265.436.474.739.599l.374.166-.348.216c-.273.172-.49.414-.626.698l-.165.366-.226-.332c-.179-.265-.436-.474-.739-.599l-.374-.166.339-.208c.275-.175.495-.42.635-.706z" fill="#adc964"/><path d="m336.339 207.665.165-.357.226.332c.187.259.442.466.74.599l.373.157-.339.217c-.277.171-.495.417-.626.706l-.174.357-.226-.324c-.178-.264-.432-.474-.73-.606l-.383-.158.348-.216c.277-.172.495-.418.626-.707z" fill="#adc964"/><path d="m366.252 191.457.287-.615.392.565c.31.453.751.811 1.269 1.031l.644.274-.592.374c-.474.297-.848.718-1.078 1.214l-.295.615-.383-.565c-.315-.45-.755-.807-1.27-1.031l-.652-.274.592-.374c.476-.297.853-.718 1.086-1.214z" fill="#adc964"/><path d="m362.365 168.75.487-1.039.652.956c.524.76 1.263 1.362 2.131 1.737l1.087.457-1 .623c-.794.506-1.424 1.214-1.818 2.045l-.487 1.039-.652-.956c-.524-.76-1.262-1.362-2.13-1.737l-1.087-.466 1-.623c.795-.501 1.425-1.207 1.817-2.036z" fill="#adc964"/><path d="m288.608 161.751.487-1.039.653.948c.521.762 1.261 1.365 2.13 1.737l1.087.465-.991.624c-.8.496-1.431 1.203-1.818 2.036l-.487 1.039-.652-.948c-.522-.764-1.265-1.367-2.139-1.737l-1.078-.465.991-.624c.797-.498 1.428-1.205 1.817-2.036z" fill="#adc964"/><path d="m408.722 124.498c0 .116-40.2.216-89.783.216-49.582 0-89.782-.1-89.782-.216s40.191-.216 89.782-.216c49.592 0 89.783.1 89.783.216z" fill="#263238"/><path d="m239.295 117.683c-.001.412-.131.814-.372 1.156s-.582.609-.981.765c-.399.157-.838.197-1.26.115-.423-.081-.811-.28-1.116-.572-.304-.292-.511-.664-.595-1.069-.083-.404-.039-.823.126-1.204.166-.381.445-.706.804-.935s.78-.351 1.212-.351c.287 0 .572.054.837.16.265.105.506.26.709.454.203.195.364.426.473.68s.165.526.163.801z" fill="#263238"/><path d="m245.609 117.683c-.002.412-.131.814-.372 1.156s-.583.609-.982.765c-.398.157-.837.197-1.26.115-.423-.081-.811-.28-1.115-.572-.305-.292-.512-.664-.595-1.069-.084-.404-.04-.823.126-1.204.165-.381.445-.706.804-.935.358-.229.78-.351 1.211-.351.288 0 .572.054.838.16.265.105.506.26.709.454.202.195.363.426.472.68s.165.526.164.801z" fill="#263238"/><path d="m251.887 117.683c-.002.413-.132.816-.374 1.159-.242.342-.585.608-.986.764-.4.156-.84.195-1.264.111-.423-.083-.811-.285-1.115-.58-.303-.294-.508-.668-.588-1.074-.081-.406-.033-.826.136-1.206.17-.381.453-.704.815-.93.363-.226.787-.344 1.219-.339.576.007 1.126.23 1.53.623.404.392.629.921.627 1.472z" fill="#263238"/><path d="m408.774 302.884c0-1.309-.087-78.88-.208-191.713l.208.147h-179.548l.225-.159c0 72.346 0 139.046-.052 191.713l-.173-.123 179.566.123-179.566.128h-.183v-.128c0-52.667 0-119.367-.043-191.713v-.159h.243 179.549.208v.147c-.139 112.857-.226 190.434-.226 191.737z" fill="#263238"/></svg>